<?xml version="1.0" encoding="UTF-8"?>
<svg version="1.1" xmlns="http://www.w3.org/2000/svg" width="179" height="194">
<path d="M0 0 C1.31223496 3.93670488 0.24296256 6.12488144 -1 10 C0.485 10.495 0.485 10.495 2 11 C3.75390625 13.328125 3.75390625 13.328125 5.5625 16.25 C6.16191406 17.20390625 6.76132813 18.1578125 7.37890625 19.140625 C11.85183547 27.03022545 12.93653242 34.92583589 11 43.8125 C8.98935102 50.99608627 5.528086 57.46579141 2 64 C4.69842097 63.38591733 6.86118805 62.62420885 9.4375 61.5 C16.44656178 58.54881609 23.35117908 57.94864482 30.6875 60.0625 C34.84365077 62.49345611 37.73112047 64.69747594 40 69 C41.88197304 76.5594336 41.22132372 83.00575603 38 90 C37.24976563 91.65902344 37.24976563 91.65902344 36.484375 93.3515625 C28.47219836 110.48280029 16.3813159 121.78816911 0 131 C-1.14855469 131.66708984 -1.14855469 131.66708984 -2.3203125 132.34765625 C-6.2417556 134.4929163 -9.39429807 135.2993529 -13.91796875 135.65625 C-17.18305164 136.1953256 -19.9668973 137.6168994 -22.921875 139.0625 C-29.46964278 142.0163802 -37.02463569 142.37850072 -44 141 C-46.50757025 138.63585166 -47.67480989 136.33801072 -49.20703125 133.2578125 C-51.30535196 129.44517748 -53.84137167 126.76239581 -56.875 123.6875 C-68.06053858 111.98696384 -76.70013819 97.50102626 -79.56640625 81.3671875 C-79.9881536 78.89077061 -79.9881536 78.89077061 -80.77734375 76.0703125 C-85.12765297 58.38841049 -85.13911369 38.23185705 -79 21 C-78.68804687 20.11570312 -78.37609375 19.23140625 -78.0546875 18.3203125 C-73.87607673 7.89134276 -66.29015583 -0.1664764 -56.35546875 -5.390625 C-39.29531603 -12.16696538 -15.98221702 -8.22365399 0 0 Z M-28.3984375 20.1171875 C-30.20205534 22.33036048 -31.63240802 24.4954942 -33 27 C-33.42796875 27.78375 -33.8559375 28.5675 -34.296875 29.375 C-37.83487977 36.93566773 -38.14056006 44.72289979 -36 52.75 C-35.67 53.4925 -35.34 54.235 -35 55 C-32.55896641 55.50588825 -30.11758817 55.99796288 -27.66796875 56.4609375 C-25.50671614 56.89761812 -23.37141914 57.46143124 -21.25 58.0625 C-18.08702188 58.32490013 -18.08702188 58.32490013 -16.37890625 56.74609375 C-13.75818943 53.82474608 -11.75916053 50.68107832 -9.875 47.25 C-8.12791138 44.22171307 -6.93842842 42.78404583 -4 41 C-4.144375 40.360625 -4.28875 39.72125 -4.4375 39.0625 C-6.45755411 28.06442764 -6.45755411 28.06442764 -4.875 22.375 C-3.60664445 17.62701112 -4.6569697 15.23547786 -7 11 C-14.47736308 11 -22.79339961 15.16941789 -28.3984375 20.1171875 Z M0.1875 75.25 C-2.00976532 78.66476643 -3.11689269 82.0260171 -4 86 C-4.309375 86.845625 -4.61875 87.69125 -4.9375 88.5625 C-5.02010929 91.78426236 -3.81682005 93.57314746 -1.63671875 95.890625 C0.17106096 97.32782235 0.17106096 97.32782235 3.625 97.125 C5.09640864 96.80512856 6.55486661 96.42302551 8 96 C8.89589844 95.74605469 9.79179687 95.49210937 10.71484375 95.23046875 C16.58476466 93.33824459 22.32050249 91.18786295 26 86 C27.15502563 82.88693092 27.51043144 80.28742151 27 77 C23.8996462 72.54324141 20.07455988 70.72172567 15 69 C8.97615648 68.09642347 3.79535721 70.51402225 0.1875 75.25 Z M-22 128 C-21.34 128.66 -20.68 129.32 -20 130 C-20 129.34 -20 128.68 -20 128 C-20.66 128 -21.32 128 -22 128 Z M-20 130 C-19.34 130.66 -18.68 131.32 -18 132 C-18 131.34 -18 130.68 -18 130 C-18.66 130 -19.32 130 -20 130 Z " fill="#03B464" transform="translate(119,11)"/>
<path d="M0 0 C3.87036618 1.29012206 4.4417845 2.82387647 6.5625 6.25 C7.16191406 7.20390625 7.76132813 8.1578125 8.37890625 9.140625 C12.85183547 17.03022545 13.93653242 24.92583589 12 33.8125 C9.98935102 40.99608627 6.528086 47.46579141 3 54 C5.69842097 53.38591733 7.86118805 52.62420885 10.4375 51.5 C17.44656178 48.54881609 24.35117908 47.94864482 31.6875 50.0625 C35.84365077 52.49345611 38.73112047 54.69747594 41 59 C42.88197304 66.5594336 42.22132372 73.00575603 39 80 C38.24976563 81.65902344 38.24976563 81.65902344 37.484375 83.3515625 C29.47219836 100.48280029 17.3813159 111.78816911 1 121 C0.23429687 121.44472656 -0.53140625 121.88945312 -1.3203125 122.34765625 C-5.2417556 124.4929163 -8.39429807 125.2993529 -12.91796875 125.65625 C-16.18305164 126.1953256 -18.9668973 127.6168994 -21.921875 129.0625 C-28.46964278 132.0163802 -36.02463569 132.37850072 -43 131 C-45.50757025 128.63585166 -46.67480989 126.33801072 -48.20703125 123.2578125 C-50.30511136 119.44561465 -52.84062721 116.76128632 -55.875 113.6875 C-63.6142877 105.6343432 -75 92.68308531 -75 81 C-72.8125 81.125 -72.8125 81.125 -70 82 C-68.7799306 83.38494365 -67.56794861 84.78015447 -66.44140625 86.2421875 C-61.7328177 91.98436866 -57.23854256 95.25276559 -50 97 C-46.60733287 98.5543497 -43.30074151 100.25997128 -40 102 C-40 102.66 -40 103.32 -40 104 C-39.030625 104.28875 -38.06125 104.5775 -37.0625 104.875 C-34 106 -34 106 -33 108 C-30.6859378 108.73075648 -28.35171131 109.40138258 -26 110 C-25.20046862 106.71303767 -24.90341064 105.28976808 -26 102 C-28.02450921 102 -30.02400526 102.59466775 -32 103 C-31.5188509 97.22621075 -29.81532819 93.04140164 -27 88 C-26.34 88 -25.68 88 -25 88 C-24.87625 87.2575 -24.7525 86.515 -24.625 85.75 C-24 83 -24 83 -22.9375 81.0625 C-21.01572241 76.8345893 -21.96864978 72.38323845 -23 68 C-23.66 68 -24.32 68 -25 68 C-25.433125 67.0409375 -25.433125 67.0409375 -25.875 66.0625 C-26.82823451 63.84793921 -26.82823451 63.84793921 -29 63 C-29 61.68 -29 60.36 -29 59 C-30.65 58.67 -32.3 58.34 -34 58 C-33.67 56.02 -33.34 54.04 -33 52 C-33.66 52 -34.32 52 -35 52 C-35.66 48.04 -36.32 44.08 -37 40 C-36.34 40 -35.68 40 -35 40 C-34.505 41.98 -34.505 41.98 -34 44 C-31.56012499 44.50564814 -29.11956037 44.99812408 -26.671875 45.46484375 C-24.49392541 45.9010705 -22.33602777 46.43645173 -20.1875 47 C-16.79226613 47.36148965 -16.79226613 47.36148965 -14.375 44.5625 C-12.13334571 41.41386059 -10.14333206 38.08040047 -8.2109375 34.734375 C-7 33 -7 33 -4 31 C-4.144375 30.360625 -4.28875 29.72125 -4.4375 29.0625 C-4.623125 28.051875 -4.80875 27.04125 -5 26 C-5.13019531 25.37996094 -5.26039062 24.75992188 -5.39453125 24.12109375 C-6.6385389 16.69805908 -5.66061644 7.94572001 -1.390625 1.61328125 C-0.93171875 1.08089844 -0.4728125 0.54851563 0 0 Z M1.1875 65.25 C-1.00976532 68.66476643 -2.11689269 72.0260171 -3 76 C-3.309375 76.845625 -3.61875 77.69125 -3.9375 78.5625 C-4.02010929 81.78426236 -2.81682005 83.57314746 -0.63671875 85.890625 C1.17106096 87.32782235 1.17106096 87.32782235 4.625 87.125 C6.09640864 86.80512856 7.55486661 86.42302551 9 86 C9.89589844 85.74605469 10.79179687 85.49210937 11.71484375 85.23046875 C17.58476466 83.33824459 23.32050249 81.18786295 27 76 C28.15502563 72.88693092 28.51043144 70.28742151 28 67 C24.8996462 62.54324141 21.07455988 60.72172567 16 59 C9.97615648 58.09642347 4.79535721 60.51402225 1.1875 65.25 Z M-21 118 C-20.34 118.66 -19.68 119.32 -19 120 C-19 119.34 -19 118.68 -19 118 C-19.66 118 -20.32 118 -21 118 Z M-19 120 C-18.34 120.66 -17.68 121.32 -17 122 C-17 121.34 -17 120.68 -17 120 C-17.66 120 -18.32 120 -19 120 Z " fill="#03B464" transform="translate(118,21)"/>
<path d="M0 0 C4.71282388 0.77921192 9.11522513 2.28338021 13.625 3.8125 C14.81790649 4.2151709 14.81790649 4.2151709 16.03491211 4.62597656 C18.35804752 5.41316052 20.67913815 6.2061428 23 7 C24.77697266 7.60134766 24.77697266 7.60134766 26.58984375 8.21484375 C27.57082031 8.55644531 28.55179688 8.89804688 29.5625 9.25 C30.40941406 9.54390625 31.25632812 9.8378125 32.12890625 10.140625 C34 11 34 11 35 13 C42.7192969 15.28706268 51.00892628 15.47533737 59 15.75 C60.76089966 15.81356689 60.76089966 15.81356689 62.55737305 15.87841797 C72.52370246 16.15169158 82.15190204 15.48076447 92 14 C93.11761719 13.87367188 94.23523438 13.74734375 95.38671875 13.6171875 C98.33659165 13.23424391 98.33659165 13.23424391 100 10 C102.28735352 9.06445312 102.28735352 9.06445312 105.12890625 8.28125 C106.16466797 7.98863281 107.20042969 7.69601563 108.26757812 7.39453125 C109.89856445 6.95173828 109.89856445 6.95173828 111.5625 6.5 C113.68925388 5.90787035 115.81556372 5.31414328 117.94140625 4.71875 C118.96379395 4.43386719 119.98618164 4.14898437 121.03955078 3.85546875 C125.07142677 2.69039424 129.03197741 1.36569927 133 0 C132.582687 4.92784505 130.45014073 6.9777145 126.9375 10.3125 C125.55884766 11.63701172 125.55884766 11.63701172 124.15234375 12.98828125 C123.44207031 13.65214844 122.73179687 14.31601563 122 15 C127.445 16.485 127.445 16.485 133 18 C133 19.32 133 20.64 133 22 C125.60550459 25.77981651 125.60550459 25.77981651 122.25 27 C119.87955905 27.8665444 119.87955905 27.8665444 118.296875 29.9296875 C115.34197986 32.59311339 112.84819839 33.17096748 109 34.125 C108.33645508 34.29040283 107.67291016 34.45580566 106.98925781 34.6262207 C84.86568166 40.00325774 61.4442684 40.79971316 39 37 C38.01797607 36.83927002 38.01797607 36.83927002 37.01611328 36.67529297 C18.28617503 33.55287909 18.28617503 33.55287909 13.65234375 28.54296875 C11.31782625 26.36298196 8.76749852 25.48814457 5.8125 24.3125 C4.72582031 23.87550781 3.63914063 23.43851563 2.51953125 22.98828125 C1.68808594 22.66214844 0.85664063 22.33601563 0 22 C0.18359375 20.109375 0.18359375 20.109375 1 18 C3.28515625 16.953125 3.28515625 16.953125 6.0625 16.25 C6.98160156 16.00765625 7.90070312 15.7653125 8.84765625 15.515625 C9.55792969 15.34546875 10.26820312 15.1753125 11 15 C7.22583323 10.29013213 7.22583323 10.29013213 2.6875 6.375 C0.39219921 4.50475491 0.31003998 2.86786984 0 0 Z " fill="#F3F52A" transform="translate(30,139)"/>
<path d="M0 0 C3.87036618 1.29012206 4.4417845 2.82387647 6.5625 6.25 C7.16191406 7.20390625 7.76132813 8.1578125 8.37890625 9.140625 C12.85183547 17.03022545 13.93653242 24.92583589 12 33.8125 C9.98935102 40.99608627 6.528086 47.46579141 3 54 C5.69842097 53.38591733 7.86118805 52.62420885 10.4375 51.5 C17.44656178 48.54881609 24.35117908 47.94864482 31.6875 50.0625 C35.84365077 52.49345611 38.73112047 54.69747594 41 59 C42.87189247 66.51894239 42.13784411 72.97973859 39 80 C38.34 80 37.68 80 37 80 C36.90203125 79.07058594 36.8040625 78.14117187 36.703125 77.18359375 C35.85110353 70.13972656 35.06556589 64.84425097 31 59 C30.3162955 57.67532254 29.64582713 56.34355109 29 55 C27.3733152 55.28211877 25.74867104 55.57602375 24.125 55.875 C22.76761719 56.11863281 22.76761719 56.11863281 21.3828125 56.3671875 C18.83494012 56.83044703 18.83494012 56.83044703 17 59 C14.9765625 59.59765625 14.9765625 59.59765625 12.625 60.0625 C11.08322489 60.37446453 9.54155583 60.68695368 8 61 C7.26652344 61.14695313 6.53304687 61.29390625 5.77734375 61.4453125 C3.8226712 61.83661091 3.8226712 61.83661091 2.9375 63.8125 C2.628125 64.534375 2.31875 65.25625 2 66 C-0.38195806 70.01171884 -3.72513377 72.28351451 -8 74 C-15.71641791 75.64179104 -15.71641791 75.64179104 -19 74 C-19.350625 73.071875 -19.70125 72.14375 -20.0625 71.1875 C-22.06472093 66.14023474 -25.57689003 62.16910786 -28.94140625 57.96484375 C-31.96299776 53.61306394 -33 50.28421101 -33 45 C-31.64567321 45.14433868 -30.29154775 45.29056661 -28.9375 45.4375 C-28.11636719 45.52 -27.29523438 45.6025 -26.44921875 45.6875 C-24 46 -24 46 -20.25 46.9375 C-16.80008315 47.38012506 -16.80008315 47.38012506 -14.375 44.5625 C-12.13334571 41.41386059 -10.14333206 38.08040047 -8.2109375 34.734375 C-7 33 -7 33 -4 31 C-4.2165625 30.0409375 -4.2165625 30.0409375 -4.4375 29.0625 C-4.623125 28.051875 -4.80875 27.04125 -5 26 C-5.13019531 25.37996094 -5.26039062 24.75992188 -5.39453125 24.12109375 C-6.6385389 16.69805908 -5.66061644 7.94572001 -1.390625 1.61328125 C-0.93171875 1.08089844 -0.4728125 0.54851563 0 0 Z " fill="#F94390" transform="translate(118,21)"/>
<path d="M0 0 C2.1875 0.125 2.1875 0.125 5 1 C6.22502628 2.39057037 7.44107044 3.79230128 8.5703125 5.26171875 C14.80619062 12.84359242 23.90125805 19.46240913 33 23 C34.31250354 23.75661969 35.60562478 24.54806262 36.875 25.375 C39.33219137 26.96857599 41.77083976 28.41458437 44.35546875 29.8046875 C48.19410793 31.98279176 51.25977083 34.71181979 54.4375 37.75 C54.97826172 38.25660156 55.51902344 38.76320312 56.07617188 39.28515625 C57.38979766 40.51740699 58.6957364 41.75784419 60 43 C59 46 59 46 56.8046875 47.16796875 C48.76811155 49.96469718 40.43903439 52.07517239 32 50 C29.5320745 47.62450617 28.31663535 45.32081322 26.79296875 42.2578125 C24.69488864 38.44561465 22.15937279 35.76128632 19.125 32.6875 C11.3857123 24.6343432 0 11.68308531 0 0 Z " fill="#FA4491" transform="translate(43,102)"/>
<path d="M0 0 C0.05418326 2.08304538 0.09287551 4.16649768 0.125 6.25 C0.14820313 7.41015625 0.17140625 8.5703125 0.1953125 9.765625 C0.00168696 12.97206398 -0.22953714 14.38903142 -2 17 C-4.10717773 17.8972168 -4.10717773 17.8972168 -6.68359375 18.44921875 C-7.61107422 18.65740234 -8.53855469 18.86558594 -9.49414062 19.08007812 C-10.46544922 19.28052734 -11.43675781 19.48097656 -12.4375 19.6875 C-14.35302147 20.1073578 -16.26839284 20.52790113 -18.18359375 20.94921875 C-19.03493896 21.12799561 -19.88628418 21.30677246 -20.76342773 21.4909668 C-23.15122778 21.99607 -23.15122778 21.99607 -26 23 C-28.52672162 23.25812139 -31.02943342 23.46891212 -33.5625 23.625 C-34.63298584 23.69146729 -34.63298584 23.69146729 -35.72509766 23.75927734 C-49.0542858 24.4728571 -49.0542858 24.4728571 -54 22 C-54 20.02 -54 18.04 -54 16 C-56.64 16 -59.28 16 -62 16 C-61.67 14.68 -61.34 13.36 -61 12 C-61.66 12 -62.32 12 -63 12 C-63 10.68 -63 9.36 -63 8 C-59.65747276 7.92572162 -57.1964086 7.93453047 -54 9 C-52.01820631 8.96751158 -50.03641513 8.93473288 -48.0546875 8.8984375 C-45.18624762 9.0402235 -42.71156826 10.09614391 -40 11 C-37.22252318 10.71360214 -37.22252318 10.71360214 -35 10 C-34.67 11.32 -34.34 12.64 -34 14 C-33.67 12.02 -33.34 10.04 -33 8 C-26.15849682 5.10965708 -19.24873458 3.26332869 -12 1.75 C-11.16299561 1.57500977 -10.32599121 1.40001953 -9.46362305 1.21972656 C-6.22545478 0.56517867 -3.3147527 0 0 0 Z " fill="#F9FB22" transform="translate(146,151)"/>
<path d="M0 0 C-0.417313 4.92784505 -2.54985927 6.9777145 -6.0625 10.3125 C-7.44115234 11.63701172 -7.44115234 11.63701172 -8.84765625 12.98828125 C-9.55792969 13.65214844 -10.26820313 14.31601563 -11 15 C-7.37 15.99 -3.74 16.98 0 18 C0 19.32 0 20.64 0 22 C-7.39449541 25.77981651 -7.39449541 25.77981651 -10.75 27 C-13.12044095 27.8665444 -13.12044095 27.8665444 -14.703125 29.9296875 C-17.65802014 32.59311339 -20.15180161 33.17096748 -24 34.125 C-24.66354492 34.29040283 -25.32708984 34.45580566 -26.01074219 34.6262207 C-48.13431834 40.00325774 -71.5557316 40.79971316 -94 37 C-94.98202393 36.83927002 -94.98202393 36.83927002 -95.98388672 36.67529297 C-114.52644779 33.5841162 -114.52644779 33.5841162 -119.47265625 28.48046875 C-121.27505692 26.73338472 -122.82591316 26.12550531 -125.1875 25.3125 C-125.90292969 25.06113281 -126.61835937 24.80976563 -127.35546875 24.55078125 C-127.89816406 24.36902344 -128.44085938 24.18726563 -129 24 C-129 23.34 -129 22.68 -129 22 C-125.04 22.99 -121.08 23.98 -117 25 C-117 26.32 -117 27.64 -117 29 C-110.4 30.32 -103.8 31.64 -97 33 C-97 33.66 -97 34.32 -97 35 C-84.7959485 35.87192861 -72.66990854 36.12653137 -60.4375 36.0625 C-58.73242322 36.05746548 -57.02734496 36.05290609 -55.32226562 36.04882812 C-51.21480622 36.03799884 -47.10742027 36.02084659 -43 36 C-43 35.34 -43 34.68 -43 34 C-35.05394988 31.64137417 -27.1698614 29.43066697 -19 28 C-17.89485234 24.68455701 -17.67892369 21.79589889 -17.4375 18.3125 C-17.35371094 17.13300781 -17.26992187 15.95351562 -17.18359375 14.73828125 C-17.12300781 13.83464844 -17.06242187 12.93101562 -17 12 C-17.99257812 12.26554688 -18.98515625 12.53109375 -20.0078125 12.8046875 C-32.97586905 16.20582876 -45.52423003 18.44425615 -59 18 C-59 17.34 -59 16.68 -59 16 C-57.77023438 15.86722656 -56.54046875 15.73445312 -55.2734375 15.59765625 C-53.64061531 15.41935957 -52.00780334 15.2409692 -50.375 15.0625 C-49.56675781 14.97548828 -48.75851563 14.88847656 -47.92578125 14.79882812 C-45.61552714 14.54526365 -43.30789216 14.27410753 -41 14 C-39.28683594 13.81244141 -39.28683594 13.81244141 -37.5390625 13.62109375 C-34.65794218 13.21970026 -34.65794218 13.21970026 -33 10 C-30.6809082 9.06445312 -30.6809082 9.06445312 -27.80078125 8.28125 C-26.23360352 7.84232422 -26.23360352 7.84232422 -24.63476562 7.39453125 C-22.99024414 6.95173828 -22.99024414 6.95173828 -21.3125 6.5 C-15.04424481 4.7819504 -6.31242327 0 0 0 Z " fill="#E7E92F" transform="translate(163,139)"/>
<path d="M0 0 C0.33 0.66 0.66 1.32 1 2 C-0.98 4.97 -0.98 4.97 -3 8 C-2.19175781 7.65066406 -1.38351563 7.30132812 -0.55078125 6.94140625 C0.51785156 6.48636719 1.58648437 6.03132813 2.6875 5.5625 C3.74324219 5.11003906 4.79898438 4.65757813 5.88671875 4.19140625 C12.78790566 1.55042506 19.57232098 1.01236367 26.6875 3.0625 C30.84365077 5.49345611 33.73112047 7.69747594 36 12 C37.87189247 19.51894239 37.13784411 25.97973859 34 33 C33.34 33 32.68 33 32 33 C31.90203125 32.07058594 31.8040625 31.14117187 31.703125 30.18359375 C30.85110353 23.13972656 30.06556589 17.84425097 26 12 C25.3162955 10.67532254 24.64582713 9.34355109 24 8 C22.3733152 8.28211877 20.74867104 8.57602375 19.125 8.875 C17.76761719 9.11863281 17.76761719 9.11863281 16.3828125 9.3671875 C13.83494012 9.83044703 13.83494012 9.83044703 12 12 C9.9765625 12.59765625 9.9765625 12.59765625 7.625 13.0625 C6.08322489 13.37446453 4.54155583 13.68695368 3 14 C2.26652344 14.14695312 1.53304687 14.29390625 0.77734375 14.4453125 C-1.1773288 14.83661091 -1.1773288 14.83661091 -2.0625 16.8125 C-2.371875 17.534375 -2.68125 18.25625 -3 19 C-5.38195806 23.01171884 -8.72513377 25.28351451 -13 27 C-20.71641791 28.64179104 -20.71641791 28.64179104 -24 27 C-25.04718798 24.68745988 -26.04346365 22.3514852 -27 20 C-27.65288627 18.65986503 -28.31225595 17.32258472 -29 16 C-28.31164062 16.50660156 -28.31164062 16.50660156 -27.609375 17.0234375 C-22.18839928 21.42801498 -22.18839928 21.42801498 -15.6875 22.875 C-12.12625516 21.71552494 -9.23344623 19.891261 -6 18 C-5.34 18 -4.68 18 -4 18 C-4 17.34 -4 16.68 -4 16 C-3.34 16 -2.68 16 -2 16 C-2 15.34 -2 14.68 -2 14 C-1.34 14 -0.68 14 0 14 C0 13.34 0 12.68 0 12 C1.15628906 11.85304688 1.15628906 11.85304688 2.3359375 11.703125 C3.33882812 11.55359375 4.34171875 11.4040625 5.375 11.25 C6.37273437 11.11078125 7.37046875 10.9715625 8.3984375 10.828125 C11.14561047 10.25613111 11.14561047 10.25613111 12.3515625 7.921875 C12.56554687 7.28765625 12.77953125 6.6534375 13 6 C7.98464948 6.32960216 7.98464948 6.32960216 4 9 C1.8359375 9.6328125 1.8359375 9.6328125 -0.625 10.125 C-1.44226563 10.29257813 -2.25953125 10.46015625 -3.1015625 10.6328125 C-4.04128906 10.81457031 -4.04128906 10.81457031 -5 11 C-5.33 9.68 -5.66 8.36 -6 7 C-5.34 7 -4.68 7 -4 7 C-3.71125 6.21625 -3.4225 5.4325 -3.125 4.625 C-2 2 -2 2 0 0 Z " fill="#E26298" transform="translate(123,68)"/>
<path d="M0 0 C1.13490188 3.40470565 0.85941549 4.12029631 -0.3125 7.375 C-0.59351563 8.16519531 -0.87453125 8.95539062 -1.1640625 9.76953125 C-2.07327397 12.1955114 -2.99801572 14.61065288 -4 17 C-6 15 -6 15 -7 12 C-12.74058626 12.37438606 -16.81649127 14.21320279 -21.86328125 16.94140625 C-24 18 -24 18 -26 18 C-26.495 19.485 -26.495 19.485 -27 21 C-28 18 -28 18 -27.109375 15.95703125 C-26.43648437 14.89548828 -26.43648437 14.89548828 -25.75 13.8125 C-25.31171875 13.09707031 -24.8734375 12.38164062 -24.421875 11.64453125 C-23.95265625 11.10183594 -23.4834375 10.55914063 -23 10 C-22.01 10 -21.02 10 -20 10 C-20 9.34 -20 8.68 -20 8 C-19.195625 7.236875 -18.39125 6.47375 -17.5625 5.6875 C-14.92701463 2.92345437 -14.31813933 1.71162552 -14 -2 C-14.86625 -1.690625 -14.86625 -1.690625 -15.75 -1.375 C-18.51967567 -0.91338739 -19.64561267 -1.57055055 -22 -3 C-22 -3.66 -22 -4.32 -22 -5 C-30.91 -5 -39.82 -5 -49 -5 C-49 -4.34 -49 -3.68 -49 -3 C-53.88234611 -0.78075177 -58.64923372 0 -64 0 C-46.79523216 -13.83861761 -18.59659334 -9.56888202 0 0 Z " fill="#16AB66" transform="translate(119,11)"/>
<path d="M0 0 C0.66 0 1.32 0 2 0 C2.25652344 0.94359375 2.51304688 1.8871875 2.77734375 2.859375 C5.26814451 11.40773163 8.3054992 17.57794272 14.01171875 24.51171875 C16.63832282 27.79884408 18 29.76389642 18 34 C19.75091019 33.91245449 21.50079551 33.80426627 23.25 33.6875 C24.22453125 33.62949219 25.1990625 33.57148437 26.203125 33.51171875 C29.27769205 32.94919321 30.60894829 31.92962068 33 30 C35.25 30.3125 35.25 30.3125 37 31 C36.484375 31.86625 35.96875 32.7325 35.4375 33.625 C33.80799357 37.45079771 33.77891021 39.07506853 35 43 C35.91666667 45.08333333 35.91666667 45.08333333 38 46 C46.99336157 45.83940426 55.86110626 42.40240608 63 37 C62.67 38.32 62.34 39.64 62 41 C60.02 41.495 60.02 41.495 58 42 C58 42.66 58 43.32 58 44 C54.04293896 45.17101244 50.08415032 46.33607272 46.125 47.5 C44.99707031 47.83386719 43.86914062 48.16773438 42.70703125 48.51171875 C41.63066406 48.82753906 40.55429688 49.14335938 39.4453125 49.46875 C38.45031738 49.76201172 37.45532227 50.05527344 36.43017578 50.35742188 C34 51 34 51 32 51 C32 50.34 32 49.68 32 49 C31.34 49 30.68 49 30 49 C30.185625 47.7625 30.37125 46.525 30.5625 45.25 C30.94711223 42.23720423 31.0874594 39.89989173 30 37 C26.8301373 37.70441393 23.86537728 38.45114742 21 40 C20.855625 40.804375 20.71125 41.60875 20.5625 42.4375 C20.376875 43.283125 20.19125 44.12875 20 45 C15.13793103 48 15.13793103 48 12 48 C12.4247279 45.4516326 12.81339333 43.34028275 14.0625 41.0625 C15.98427759 36.8345893 15.03135022 32.38323845 14 28 C13.34 28 12.68 28 12 28 C11.71125 27.360625 11.4225 26.72125 11.125 26.0625 C10.17176549 23.84793921 10.17176549 23.84793921 8 23 C8 21.68 8 20.36 8 19 C6.35 18.67 4.7 18.34 3 18 C3.33 16.02 3.66 14.04 4 12 C3.34 12 2.68 12 2 12 C1.34 8.04 0.68 4.08 0 0 Z " fill="#299F67" transform="translate(81,61)"/>
<path d="M0 0 C1.65 0.33 3.3 0.66 5 1 C4.33203125 2.87890625 4.33203125 2.87890625 3 5 C0.32595025 6.20138467 -2.36501143 6.9529024 -5.17578125 7.77734375 C-8.17381664 8.86132595 -8.17381664 8.86132595 -10.4140625 11.4921875 C-13.5474861 14.53094573 -15.84572088 15.17210313 -20.0625 16.1875 C-20.7215332 16.34839111 -21.38056641 16.50928223 -22.05957031 16.67504883 C-44.2071281 21.94458485 -67.5486168 22.80091766 -90 19 C-90.65468262 18.89284668 -91.30936523 18.78569336 -91.98388672 18.67529297 C-110.52644779 15.5841162 -110.52644779 15.5841162 -115.47265625 10.48046875 C-117.27505692 8.73338472 -118.82591316 8.12550531 -121.1875 7.3125 C-121.90292969 7.06113281 -122.61835937 6.80976563 -123.35546875 6.55078125 C-123.89816406 6.36902344 -124.44085938 6.18726563 -125 6 C-125 5.34 -125 4.68 -125 4 C-119.06 5.485 -119.06 5.485 -113 7 C-113 8.32 -113 9.64 -113 11 C-106.4 12.32 -99.8 13.64 -93 15 C-93 15.66 -93 16.32 -93 17 C-60.66549183 20.06804878 -60.66549183 20.06804878 -29 15 C-27.6681771 14.66068206 -26.33460121 14.32822019 -25 14 C-23.14462186 13.5045144 -21.2905225 13.00422381 -19.4375 12.5 C-18.48746094 12.2421875 -17.53742188 11.984375 -16.55859375 11.71875 C-14.69144913 11.19423914 -12.8398931 10.6132977 -11 10 C-11 9.01 -11 8.02 -11 7 C-9.56445975 6.49440092 -8.1264798 5.9957251 -6.6875 5.5 C-5.88699219 5.2215625 -5.08648437 4.943125 -4.26171875 4.65625 C-2 4 -2 4 1 4 C0.505 2.02 0.505 2.02 0 0 Z " fill="#878E2B" transform="translate(159,157)"/>
<path d="M0 0 C3.65238818 0.65742987 4.14091807 1.3024282 6.375 4.125 C8.87857425 7.87709301 10.31617376 11.07719082 11.125 15.5625 C11.32738281 16.49835938 11.52976563 17.43421875 11.73828125 18.3984375 C13.19382604 27.5761474 10.4926403 33.61286802 5.33935547 40.92871094 C-2.79156734 51.86802245 -2.79156734 51.86802245 -7.875 53.5625 C-6.31896229 49.74313472 -3.91895069 47.30205562 -0.875 44.5625 C-0.215 44.5625 0.445 44.5625 1.125 44.5625 C2.115 41.5925 3.105 38.6225 4.125 35.5625 C4.785 35.5625 5.445 35.5625 6.125 35.5625 C6.455 31.9325 6.785 28.3025 7.125 24.5625 C7.455 24.5625 7.785 24.5625 8.125 24.5625 C8.47550464 18.720756 8.29227335 14.7093192 5.125 9.5625 C5.455 10.5525 5.785 11.5425 6.125 12.5625 C5.90383741 16.61714742 5.71814594 18.86150934 3.0625 22 C2.423125 22.515625 1.78375 23.03125 1.125 23.5625 C-0.1407071 21.03108579 0.31452225 19.93779913 0.8125 17.1875 C1.30575996 13.48084487 1.30575996 13.48084487 -0.375 10.1875 C-3.44952217 8.18906059 -6.4515516 6.87921092 -9.875 5.5625 C-7.44707891 1.79922231 -7.44707891 1.79922231 -5.0625 0.8125 C-2.75003442 0.5775206 -2.75003442 0.5775206 0 0 Z " fill="#25A762" transform="translate(143.875,75.4375)"/>
<path d="M0 0 C0.66 0.33 1.32 0.66 2 1 C1.44570313 1.67546875 0.89140625 2.3509375 0.3203125 3.046875 C-0.40414062 3.93890625 -1.12859375 4.8309375 -1.875 5.75 C-2.59429687 6.63171875 -3.31359375 7.5134375 -4.0546875 8.421875 C-5.68442588 10.58176924 -6.90784005 12.539766 -8 15 C-8.66 15 -9.32 15 -10 15 C-10.13277344 16.010625 -10.26554687 17.02125 -10.40234375 18.0625 C-10.77432726 20.5132149 -11.21351441 22.95583652 -11.75390625 25.375 C-15.50451018 42.18930166 -18.08330449 67.55745291 -8.375 82.875 C-7.28220893 84.27573469 -6.15392608 85.64918373 -5 87 C-4.26910156 87.92554687 -3.53820312 88.85109375 -2.78515625 89.8046875 C0.24386814 93.60482792 3.26871162 97.27186826 6.71484375 100.703125 C9 103 9 103 10 105 C4.80006642 103.36573516 1.88446085 100.36432356 -1.47265625 96.15234375 C-1.97667969 95.52457031 -2.48070312 94.89679688 -3 94.25 C-3.680625 93.36054688 -3.680625 93.36054688 -4.375 92.453125 C-6.47538911 90.57489243 -8.24718101 90.35340244 -11 90 C-11.62972446 87.56363885 -12.25380086 85.12603705 -12.875 82.6875 C-13.13603516 81.68106445 -13.13603516 81.68106445 -13.40234375 80.65429688 C-16.02037539 70.3276165 -17.3901905 60.48686487 -17.375 49.8125 C-17.37338867 48.62865723 -17.37177734 47.44481445 -17.37011719 46.22509766 C-17.24028653 36.91165757 -16.1303489 28.78656554 -13 20 C-12.68804687 19.11570312 -12.37609375 18.23140625 -12.0546875 17.3203125 C-9.38117019 10.64775249 -5.14857929 4.98052477 0 0 Z " fill="#42AB7B" transform="translate(53,12)"/>
<path d="M0 0 C4.71282388 0.77921192 9.11522513 2.28338021 13.625 3.8125 C14.81790649 4.2151709 14.81790649 4.2151709 16.03491211 4.62597656 C18.35804752 5.41316052 20.67913815 6.2061428 23 7 C24.77697266 7.60134766 24.77697266 7.60134766 26.58984375 8.21484375 C27.57082031 8.55644531 28.55179688 8.89804688 29.5625 9.25 C30.40941406 9.54390625 31.25632812 9.8378125 32.12890625 10.140625 C34 11 34 11 35 13 C43.58546399 15.64301004 53.08523161 15.57495458 62 16 C62 16.33 62 16.66 62 17 C53.19106697 19.27327304 44.46120857 17.61713015 35.6875 16.0625 C34.61693359 15.88009766 33.54636719 15.69769531 32.44335938 15.50976562 C24.02296994 14.05979249 24.02296994 14.05979249 20 13 C20 12.34 20 11.68 20 11 C19.01 10.67 18.02 10.34 17 10 C18.65 10 20.3 10 22 10 C17.47618873 7.95698846 12.83628305 6.99043705 8 6 C8 5.34 8 4.68 8 4 C7.01 4.495 7.01 4.495 6 5 C6.5775 5.55429688 7.155 6.10859375 7.75 6.6796875 C8.86375 7.76636719 8.86375 7.76636719 10 8.875 C10.7425 9.59429687 11.485 10.31359375 12.25 11.0546875 C14 13 14 13 14 15 C14.99 15.33 15.98 15.66 17 16 C17 16.66 17 17.32 17 18 C12.38 18.33 7.76 18.66 3 19 C3 19.99 3 20.98 3 22 C2.01 22 1.02 22 0 22 C0.18359375 20.109375 0.18359375 20.109375 1 18 C3.28515625 16.953125 3.28515625 16.953125 6.0625 16.25 C6.98160156 16.00765625 7.90070312 15.7653125 8.84765625 15.515625 C9.55792969 15.34546875 10.26820312 15.1753125 11 15 C7.22583323 10.29013213 7.22583323 10.29013213 2.6875 6.375 C0.39219921 4.50475491 0.31003998 2.86786984 0 0 Z " fill="#AFAF41" transform="translate(30,139)"/>
<path d="M0 0 C1.60294922 0.01353516 1.60294922 0.01353516 3.23828125 0.02734375 C4.04652344 0.03894531 4.85476562 0.05054688 5.6875 0.0625 C5.6875 0.7225 5.6875 1.3825 5.6875 2.0625 C14.1025 1.5675 14.1025 1.5675 22.6875 1.0625 C20.1220406 3.6279594 18.21063332 3.60296087 14.6875 4.0625 C14.6875 6.7025 14.6875 9.3425 14.6875 12.0625 C13.6975 11.7325 12.7075 11.4025 11.6875 11.0625 C11.6875 9.7425 11.6875 8.4225 11.6875 7.0625 C10.6975 7.0625 9.7075 7.0625 8.6875 7.0625 C8.0275 8.0525 7.3675 9.0425 6.6875 10.0625 C6.6875 8.7425 6.6875 7.4225 6.6875 6.0625 C5.3675 6.0625 4.0475 6.0625 2.6875 6.0625 C2.3575 7.3825 2.0275 8.7025 1.6875 10.0625 C1.6875 8.4125 1.6875 6.7625 1.6875 5.0625 C1.130625 5.15789062 0.57375 5.25328125 0 5.3515625 C-5.7014729 6.17981701 -9.81074076 5.76304377 -15.3125 4.0625 C-15.3125 5.3825 -15.3125 6.7025 -15.3125 8.0625 C-14.6525 8.0625 -13.9925 8.0625 -13.3125 8.0625 C-13.9725 9.3825 -14.6325 10.7025 -15.3125 12.0625 C-16.66689668 9.35370665 -16.37751451 7.05316732 -16.3125 4.0625 C-18.6225 4.0625 -20.9325 4.0625 -23.3125 4.0625 C-23.3125 6.7025 -23.3125 9.3425 -23.3125 12.0625 C-24.6325 11.7325 -25.9525 11.4025 -27.3125 11.0625 C-27.3125 10.0725 -27.3125 9.0825 -27.3125 8.0625 C-26.6525 8.0625 -25.9925 8.0625 -25.3125 8.0625 C-25.6425 6.0825 -25.9725 4.1025 -26.3125 2.0625 C-21.98151288 1.17409239 -17.9520582 0.9996962 -13.55859375 1.125 C-11.2736379 1.12754829 -11.2736379 1.12754829 -8.9296875 0.56640625 C-5.90013271 -0.01689609 -3.08275412 -0.03387642 0 0 Z " fill="#EEEE4C" transform="translate(98.3125,154.9375)"/>
<path d="M0 0 C3.34252724 -0.07427838 5.8035914 -0.06546953 9 1 C10.98179369 0.96751158 12.96358487 0.93473288 14.9453125 0.8984375 C17.81375238 1.0402235 20.28843174 2.09614391 23 3 C25.77747682 2.71360214 25.77747682 2.71360214 28 2 C28.1875 5.375 28.1875 5.375 28 9 C25 11 25 11 22.67578125 10.62890625 C21.35126953 10.31759766 21.35126953 10.31759766 20 10 C18.06348981 9.93466565 16.12497139 9.91415697 14.1875 9.9375 C13.21167969 9.94652344 12.23585938 9.95554688 11.23046875 9.96484375 C10.49441406 9.97644531 9.75835937 9.98804688 9 10 C9 9.34 9 8.68 9 8 C6.36 8 3.72 8 1 8 C1.33 6.68 1.66 5.36 2 4 C1.34 4 0.68 4 0 4 C0 2.68 0 1.36 0 0 Z " fill="#E1E231" transform="translate(83,159)"/>
<path d="M0 0 C-0.41421969 4.83256305 -2.46413986 6.82679218 -6 10 C-6.66 9.67 -7.32 9.34 -8 9 C-7.01 7.68 -6.02 6.36 -5 5 C-6.4589426 5.47730838 -7.91713496 5.95691042 -9.375 6.4375 C-10.18710938 6.70433594 -10.99921875 6.97117188 -11.8359375 7.24609375 C-14.01031799 7.95179729 -14.01031799 7.95179729 -16 9 C-16 9.66 -16 10.32 -16 11 C-17.32 11 -18.64 11 -20 11 C-20 11.66 -20 12.32 -20 13 C-22.99914719 13.65001678 -25.99921801 14.29511037 -29 14.9375 C-29.83917969 15.11990234 -30.67835938 15.30230469 -31.54296875 15.49023438 C-38.87950107 17.05422382 -45.96679063 18.14810465 -53.5 18.0625 C-54.5415625 18.05347656 -55.583125 18.04445312 -56.65625 18.03515625 C-57.81640625 18.01775391 -57.81640625 18.01775391 -59 18 C-59 17.34 -59 16.68 -59 16 C-57.77023438 15.86722656 -56.54046875 15.73445312 -55.2734375 15.59765625 C-53.64061531 15.41935957 -52.00780334 15.2409692 -50.375 15.0625 C-49.56675781 14.97548828 -48.75851563 14.88847656 -47.92578125 14.79882812 C-45.61552714 14.54526365 -43.30789216 14.27410753 -41 14 C-39.85789062 13.87496094 -38.71578125 13.74992188 -37.5390625 13.62109375 C-34.65794218 13.21970026 -34.65794218 13.21970026 -33 10 C-30.6809082 9.06445312 -30.6809082 9.06445312 -27.80078125 8.28125 C-26.23360352 7.84232422 -26.23360352 7.84232422 -24.63476562 7.39453125 C-23.53841797 7.09933594 -22.44207031 6.80414063 -21.3125 6.5 C-15.04424481 4.7819504 -6.31242327 0 0 0 Z " fill="#898822" transform="translate(163,139)"/>
<path d="M0 0 C1.33457248 0.66418259 2.66756514 1.33153941 4 2 C4.80695313 2.40476562 5.61390625 2.80953125 6.4453125 3.2265625 C15.36275503 7.88027158 23.11521325 13.65622747 30 21 C29 24 29 24 26.8046875 25.16796875 C18.78214382 27.95981395 10.4207118 30.10027078 2 28 C-0.54610694 25.54323015 -1.86533785 23.20757598 -3.4375 20.046875 C-5.84263732 15.35685722 -9.39216791 11.79525194 -13 8 C-12.34 7.67 -11.68 7.34 -11 7 C-7.68321733 9.44394513 -5.68893987 11.26020456 -4 15 C-2.58333333 16.58333333 -2.58333333 16.58333333 -1 18 C0 19 1 20 2 21 C2.556875 21.53625 3.11375 22.0725 3.6875 22.625 C5 24 5 24 5 25 C10.79253532 25.23643001 15.4094007 24.7201844 21 23 C23.9375 22.875 23.9375 22.875 26 23 C23.95786783 18.20304524 21.8927386 15.71987837 17.625 12.75 C16.68914062 12.08484375 15.75328125 11.4196875 14.7890625 10.734375 C12.22590887 9.14048115 9.82947059 8.0222916 7 7 C4.10817888 5.72419656 2.03823147 4.44587776 0 2 C0 1.34 0 0.68 0 0 Z " fill="#E94E8C" transform="translate(73,124)"/>
<path d="M0 0 C1.1406356 3.42190681 0.83489425 4.26170231 -0.3125 7.5625 C-0.57675781 8.34753906 -0.84101562 9.13257812 -1.11328125 9.94140625 C-2 12 -2 12 -4 14 C-4.14695312 13.06027344 -4.14695312 13.06027344 -4.296875 12.1015625 C-4.44640625 11.28429687 -4.5959375 10.46703125 -4.75 9.625 C-4.88921875 8.81289063 -5.0284375 8.00078125 -5.171875 7.1640625 C-5.81749261 4.82290908 -5.81749261 4.82290908 -8.078125 3.7109375 C-8.71234375 3.47632813 -9.3465625 3.24171875 -10 3 C-10 2.34 -10 1.68 -10 1 C-7.625 1.3125 -7.625 1.3125 -5 2 C-4.34 2.99 -3.68 3.98 -3 5 C-2.67 4.01 -2.34 3.02 -2 2 C-3.98 1.34 -5.96 0.68 -8 0 C-8 -0.66 -8 -1.32 -8 -2 C-9.60875 -2.185625 -9.60875 -2.185625 -11.25 -2.375 C-13.68535212 -2.66622928 -16.06249187 -3.01297375 -18.46484375 -3.51171875 C-28.58008607 -5.55798728 -38.73078678 -5.18760508 -49 -5 C-49 -4.34 -49 -3.68 -49 -3 C-53.88234611 -0.78075177 -58.64923372 0 -64 0 C-46.79523216 -13.83861761 -18.59659334 -9.56888202 0 0 Z " fill="#43B27D" transform="translate(119,11)"/>
<path d="M0 0 C-3.26545761 1.88391785 -6.28111761 2.49287967 -10 3 C-9.67 3.680625 -9.34 4.36125 -9 5.0625 C-7.82692685 8.50840238 -7.85819507 11.38397422 -8 15 C-10.14576637 15.02685938 -12.29162645 15.04633088 -14.4375 15.0625 C-15.63246094 15.07410156 -16.82742187 15.08570313 -18.05859375 15.09765625 C-21 15 -21 15 -22 14 C-22.07179964 12.48071962 -22.08392007 10.95832518 -22.0625 9.4375 C-22.05347656 8.61121094 -22.04445313 7.78492188 -22.03515625 6.93359375 C-22.02355469 6.29550781 -22.01195313 5.65742188 -22 5 C-14.6141441 2.17445014 -8.00642637 -0.23548313 0 0 Z " fill="#ECF435" transform="translate(135,154)"/>
<path d="M0 0 C2.8125 0.6875 2.8125 0.6875 5.1875 3.6875 C5.72375 4.6775 6.26 5.6675 6.8125 6.6875 C6.4825 7.3475 6.1525 8.0075 5.8125 8.6875 C4.3125 7.3125 4.3125 7.3125 2.8125 5.6875 C2.8125 5.0275 2.8125 4.3675 2.8125 3.6875 C1.1858152 3.96961877 -0.43882896 4.26352375 -2.0625 4.5625 C-3.41988281 4.80613281 -3.41988281 4.80613281 -4.8046875 5.0546875 C-7.35255988 5.51794703 -7.35255988 5.51794703 -9.1875 7.6875 C-11.2109375 8.28515625 -11.2109375 8.28515625 -13.5625 8.75 C-15.10427511 9.06196453 -16.64594417 9.37445368 -18.1875 9.6875 C-18.92097656 9.83445312 -19.65445313 9.98140625 -20.41015625 10.1328125 C-22.3648288 10.52411091 -22.3648288 10.52411091 -23.25 12.5 C-23.559375 13.221875 -23.86875 13.94375 -24.1875 14.6875 C-26.56945806 18.69921884 -29.91263377 20.97101451 -34.1875 22.6875 C-41.90391791 24.32929104 -41.90391791 24.32929104 -45.1875 22.6875 C-46.23468798 20.37495988 -47.23096365 18.0389852 -48.1875 15.6875 C-48.84038627 14.34736503 -49.49975595 13.01008472 -50.1875 11.6875 C-49.49914062 12.19410156 -49.49914062 12.19410156 -48.796875 12.7109375 C-43.37589928 17.11551498 -43.37589928 17.11551498 -36.875 18.5625 C-33.31375516 17.40302494 -30.42094623 15.578761 -27.1875 13.6875 C-26.5275 13.6875 -25.8675 13.6875 -25.1875 13.6875 C-25.1875 13.0275 -25.1875 12.3675 -25.1875 11.6875 C-24.5275 11.6875 -23.8675 11.6875 -23.1875 11.6875 C-23.1875 11.0275 -23.1875 10.3675 -23.1875 9.6875 C-22.5275 9.6875 -21.8675 9.6875 -21.1875 9.6875 C-21.1875 9.0275 -21.1875 8.3675 -21.1875 7.6875 C-20.11822266 7.55794922 -20.11822266 7.55794922 -19.02734375 7.42578125 C-12.22741825 6.43889841 -12.22741825 6.43889841 -6.375 3.0625 C-3.1875 0.6875 -3.1875 0.6875 0 0 Z " fill="#D86190" transform="translate(144.1875,72.3125)"/>
<path d="M0 0 C-0.515625 0.86625 -1.03125 1.7325 -1.5625 2.625 C-3.19200643 6.45079771 -3.22108979 8.07506853 -2 12 C-1.08333333 14.08333333 -1.08333333 14.08333333 1 15 C9.99336157 14.83940426 18.86110626 11.40240608 26 6 C25.67 7.32 25.34 8.64 25 10 C23.68 10.33 22.36 10.66 21 11 C21 11.66 21 12.32 21 13 C17.04293896 14.17101244 13.08415032 15.33607272 9.125 16.5 C7.99707031 16.83386719 6.86914062 17.16773437 5.70703125 17.51171875 C4.63066406 17.82753906 3.55429688 18.14335938 2.4453125 18.46875 C1.45031738 18.76201172 0.45532227 19.05527344 -0.56982422 19.35742188 C-3 20 -3 20 -5 20 C-5 19.34 -5 18.68 -5 18 C-5.66 18 -6.32 18 -7 18 C-6.814375 16.7625 -6.62875 15.525 -6.4375 14.25 C-6.05288777 11.23720423 -5.9125406 8.89989173 -7 6 C-9.16874252 6.50603992 -10.99967627 6.99983813 -13 8 C-11.68818459 4.06455377 -9.04041273 2.25061837 -5.8515625 -0.14453125 C-3.50485148 -1.22877115 -2.38346137 -0.85573613 0 0 Z " fill="#15A965" transform="translate(118,92)"/>
<path d="M0 0 C2 1 2 1 3.4375 4.125 C4.03779825 8.26038796 3.97908982 8.72787214 1.75 11.9375 C0.359375 13.71484375 0.359375 13.71484375 -1 15 C-1.66 15 -2.32 15 -3 15 C-3.33 17.31 -3.66 19.62 -4 22 C-5.32 22 -6.64 22 -8 22 C-8.66 23.32 -9.32 24.64 -10 26 C-15.52677733 26.19392201 -19.75614911 25.7479503 -25 24 C-24.566875 24.969375 -24.13375 25.93875 -23.6875 26.9375 C-21.85191675 31.20304583 -20.41326892 35.57977593 -19 40 C-25.12704894 34.2041429 -27.29874818 30.27477144 -28 22 C-26.64567321 22.14433868 -25.29154775 22.29056661 -23.9375 22.4375 C-22.70580078 22.56125 -22.70580078 22.56125 -21.44921875 22.6875 C-19 23 -19 23 -15.25 23.9375 C-11.80008315 24.38012506 -11.80008315 24.38012506 -9.375 21.5625 C-7.13334571 18.41386059 -5.14333206 15.08040047 -3.2109375 11.734375 C-2 10 -2 10 1 8 C0.67 5.36 0.34 2.72 0 0 Z " fill="#DA598F" transform="translate(113,44)"/>
<path d="M0 0 C0.33623796 1.2909136 0.66889249 2.58276097 1 3.875 C1.185625 4.59429687 1.37125 5.31359375 1.5625 6.0546875 C2 8 2 8 2 10 C2.20625 10.763125 2.4125 11.52625 2.625 12.3125 C3.08046854 15.57669121 2.52311291 17.10608547 1 20 C-0.625 21.8125 -0.625 21.8125 -2 23 C-3.2657071 20.46858579 -2.81047775 19.37529913 -2.3125 16.625 C-1.81924004 12.91834487 -1.81924004 12.91834487 -3.5 9.625 C-6.57452217 7.62656059 -9.5765516 6.31671092 -13 5 C-10.57207891 1.23672231 -10.57207891 1.23672231 -8.1875 0.25 C-5.44459813 -0.0634745 -2.75800578 -0.06268195 0 0 Z " fill="#0EAF64" transform="translate(147,76)"/>
<path d="M0 0 C0.66 0 1.32 0 2 0 C0.7874262 3.72433382 -0.50859979 7.37802806 -2 11 C-1.34 11.33 -0.68 11.66 0 12 C0.66 10.35 1.32 8.7 2 7 C2.66 7 3.32 7 4 7 C4.66 6.01 5.32 5.02 6 4 C10.59115976 1.21747893 14.94933015 2.18573079 20 3 C18.25 5 18.25 5 16 7 C14.68 7 13.36 7 12 7 C11.67 7.66 11.34 8.32 11 9 C9 11 9 11 5.6875 11.4375 C1.98115613 12.00287449 0.079481 12.97634106 -3 15 C-3.66 15 -4.32 15 -5 15 C-4.5188509 9.22621075 -2.81532819 5.04140164 0 0 Z " fill="#13B168" transform="translate(91,109)"/>
<path d="M0 0 C2.475 0.495 2.475 0.495 5 1 C4.33203125 2.87890625 4.33203125 2.87890625 3 5 C0.32595025 6.20138467 -2.36501143 6.9529024 -5.17578125 7.77734375 C-8.17381664 8.86132595 -8.17381664 8.86132595 -10.4140625 11.4921875 C-13.5474861 14.53094573 -15.84572088 15.17210313 -20.0625 16.1875 C-20.7237085 16.34839111 -21.38491699 16.50928223 -22.06616211 16.67504883 C-32.67177834 19.19204697 -43.12604319 20.38874207 -54 21 C-53.67 20.34 -53.34 19.68 -53 19 C-51.00634766 18.51342773 -51.00634766 18.51342773 -48.4140625 18.18359375 C-47.48335938 18.05919922 -46.55265625 17.93480469 -45.59375 17.80664062 C-44.6140625 17.68482422 -43.634375 17.56300781 -42.625 17.4375 C-40.70020811 17.1886045 -38.77571289 16.93740088 -36.8515625 16.68359375 C-35.99385254 16.57587646 -35.13614258 16.46815918 -34.25244141 16.35717773 C-31.84004992 16.03765313 -31.84004992 16.03765313 -29 15 C-27.6681771 14.66068206 -26.33460121 14.32822019 -25 14 C-23.14462186 13.5045144 -21.2905225 13.00422381 -19.4375 12.5 C-18.48746094 12.2421875 -17.53742188 11.984375 -16.55859375 11.71875 C-14.69144913 11.19423914 -12.8398931 10.6132977 -11 10 C-11 9.01 -11 8.02 -11 7 C-9.56445975 6.49440092 -8.1264798 5.9957251 -6.6875 5.5 C-5.88699219 5.2215625 -5.08648437 4.943125 -4.26171875 4.65625 C-2 4 -2 4 1 4 C0.505 2.02 0.505 2.02 0 0 Z " fill="#9CA040" transform="translate(159,157)"/>
<path d="M0 0 C1.65 0 3.3 0 5 0 C4.67 1.32 4.34 2.64 4 4 C3.34 4 2.68 4 2 4 C2 4.99 2 5.98 2 7 C2.99 7 3.98 7 5 7 C5.33 4.69 5.66 2.38 6 0 C7.32 0 8.64 0 10 0 C10 0.66 10 1.32 10 2 C9.34 2 8.68 2 8 2 C8.33 3.32 8.66 4.64 9 6 C9.66 6 10.32 6 11 6 C11.33 8.31 11.66 10.62 12 13 C5.5510809 14.31909709 -0.48755792 13.69508823 -7 13 C-7 12.34 -7 11.68 -7 11 C-3.535 10.505 -3.535 10.505 0 10 C0 6.7 0 3.4 0 0 Z " fill="#F4F725" transform="translate(69,159)"/>
<path d="M0 0 C3.88282378 0.22187564 4.96330697 0.96247304 7.75 3.8125 C11.24262396 8.76038395 11.1158827 11.97409983 11 18 C11.66 18.33 12.32 18.66 13 19 C12.01 21.97 11.02 24.94 10 28 C9.34 28 8.68 28 8 28 C7.85304687 26.64068359 7.85304687 26.64068359 7.703125 25.25390625 C6.78651715 17.78671295 5.44786191 11.66963452 2 5 C1.32165413 3.33805262 0.64800425 1.67401097 0 0 Z " fill="#E64E8B" transform="translate(147,73)"/>
<path d="M0 0 C7.78571429 0.89835165 7.78571429 0.89835165 11 3 C11.33 3.66 11.66 4.32 12 5 C20.58546399 7.64301004 30.08523161 7.57495458 39 8 C39 8.33 39 8.66 39 9 C30.19106697 11.27327304 21.46120857 9.61713015 12.6875 8.0625 C11.61693359 7.88009766 10.54636719 7.69769531 9.44335938 7.50976562 C1.02296994 6.05979249 1.02296994 6.05979249 -3 5 C-3 4.34 -3 3.68 -3 3 C-3.99 2.67 -4.98 2.34 -6 2 C-4.02 2 -2.04 2 0 2 C0 1.34 0 0.68 0 0 Z " fill="#A1924E" transform="translate(53,147)"/>
<path d="M0 0 C0.66 0.33 1.32 0.66 2 1 C-17.59763314 17 -17.59763314 17 -27.875 17 C-30 16 -30 16 -31.3125 13.4375 C-31.539375 12.633125 -31.76625 11.82875 -32 11 C-32.66 11 -33.32 11 -34 11 C-34 10.34 -34 9.68 -34 9 C-30.83884224 10.36983503 -30.0072908 10.9890638 -28 14 C-27.01 14 -26.02 14 -25 14 C-24.67 13.34 -24.34 12.68 -24 12 C-22 11.33333333 -20 10.66666667 -18 10 C-17.67 9.34 -17.34 8.68 -17 8 C-15.865625 7.525625 -14.73125 7.05125 -13.5625 6.5625 C-9.80931887 5.29809012 -9.80931887 5.29809012 -8 2 C-5.5625 1.375 -5.5625 1.375 -3 1 C-2.01 0.67 -1.02 0.34 0 0 Z " fill="#40A46D" transform="translate(133,130)"/>
<path d="M0 0 C0.99 0.33 1.98 0.66 3 1 C0.93992341 4.60513403 -1.3513141 7.80331012 -4 11 C-2.02 11.66 -0.04 12.32 2 13 C2 13.99 2 14.98 2 16 C-1.63 15.34 -5.26 14.68 -9 14 C-9.33 12.02 -9.66 10.04 -10 8 C-10.99 7.67 -11.98 7.34 -13 7 C-11.68 7 -10.36 7 -9 7 C-9.33 6.01 -9.66 5.02 -10 4 C-9.36191406 3.79503906 -8.72382813 3.59007812 -8.06640625 3.37890625 C-7.24011719 3.10949219 -6.41382813 2.84007812 -5.5625 2.5625 C-4.73878906 2.29566406 -3.91507813 2.02882812 -3.06640625 1.75390625 C-1.03780412 1.17844506 -1.03780412 1.17844506 0 0 Z " fill="#BEBE26" transform="translate(156,143)"/>
<path d="M0 0 C1.84765625 0.234375 1.84765625 0.234375 4 1 C5.30859375 2.890625 5.30859375 2.890625 6.4375 5.25 C8.49415346 9.22493879 10.6450459 11.98054131 14 15 C17.62984985 18.45278401 20.35344654 21.78511856 23 26 C17.80006642 24.36573516 14.88446085 21.36432356 11.52734375 17.15234375 C11.02332031 16.52457031 10.51929688 15.89679688 10 15.25 C9.54625 14.65703125 9.0925 14.0640625 8.625 13.453125 C6.52461089 11.57489243 4.75281899 11.35340244 2 11 C1.66550467 9.35440244 1.33243501 7.70851502 1 6.0625 C0.814375 5.14597656 0.62875 4.22945313 0.4375 3.28515625 C0 1 0 1 0 0 Z " fill="#A78A8E" transform="translate(40,91)"/>
<path d="M0 0 C3.87036618 1.29012206 4.4417845 2.82387647 6.5625 6.25 C7.16191406 7.20390625 7.76132813 8.1578125 8.37890625 9.140625 C12.6818638 16.73042 13.97156188 24.6170307 12.0625 33.1875 C11.5365625 35.0746875 11.5365625 35.0746875 11 37 C9.83797671 33.37985052 10.00034295 30.08960866 10.125 26.3125 C10.18937231 20.15207036 9.3454016 15.66805387 7 10 C6.34 10 5.68 10 5 10 C4.34 8.35 3.68 6.7 3 5 C2.01 5 1.02 5 0 5 C-0.10957031 5.64066406 -0.21914062 6.28132813 -0.33203125 6.94140625 C-1.32460328 12.3561691 -2.62458653 17.03322639 -5 22 C-5.33 22 -5.66 22 -6 22 C-4.33653846 4.53365385 -4.33653846 4.53365385 0 0 Z " fill="#CF608C" transform="translate(118,21)"/>
<path d="M0 0 C3.85025879 0.60355408 6.86101159 1.76772603 10.3125 3.5625 C11.19550781 4.01753906 12.07851562 4.47257812 12.98828125 4.94140625 C13.65214844 5.29074219 14.31601563 5.64007813 15 6 C15 6.66 15 7.32 15 8 C15.969375 8.28875 16.93875 8.5775 17.9375 8.875 C21 10 21 10 22 12 C23.58445134 12.63493496 25.19339611 13.20950851 26.8125 13.75 C31.77536632 15.62438728 33.64909498 17.29818996 36 22 C32.62597039 20.37337952 29.41574239 18.52299103 26.1875 16.625 C25.12402344 16.00238281 24.06054688 15.37976563 22.96484375 14.73828125 C21.29035261 13.75653084 19.61586817 12.774769 17.94140625 11.79296875 C14.97183786 10.07157922 11.98014937 8.51695658 8.875 7.0625 C5.14582598 5.24144421 2.74772683 3.09119268 0 0 Z " fill="#729881" transform="translate(63,117)"/>
<path d="M0 0 C3.86083225 0.22061899 4.89588557 0.88572806 7.5625 3.8125 C8.17351563 4.61494141 8.17351563 4.61494141 8.796875 5.43359375 C10.36049678 7.46934808 12.15356862 9.22195497 14 11 C13.01 11.495 13.01 11.495 12 12 C12 11.34 12 10.68 12 10 C11.4225 9.731875 10.845 9.46375 10.25 9.1875 C7.9674132 7.98280141 6.0262058 6.59201885 4 5 C4.42683632 6.27445454 4.86697202 7.54445882 5.3125 8.8125 C5.55613281 9.52019531 5.79976562 10.22789063 6.05078125 10.95703125 C7.0726487 13.15635915 8.28348459 14.32080014 10 16 C10.6875 18.6875 10.6875 18.6875 11 21 C11.99 21.33 12.98 21.66 14 22 C14.33 22.99 14.66 23.98 15 25 C15.66 25.33 16.32 25.66 17 26 C16.67 26.99 16.34 27.98 16 29 C10.81694741 23.26555884 6.93710265 17.45541911 3.5 10.5625 C3.15001953 9.86447266 2.80003906 9.16644531 2.43945312 8.44726562 C0.99532414 5.46311982 0 3.35605984 0 0 Z " fill="#DC6D99" transform="translate(43,102)"/>
<path d="M0 0 C0 0.99 0 1.98 0 3 C2.64 3 5.28 3 8 3 C8 4.98 8 6.96 8 9 C4.04 9 0.08 9 -4 9 C-4 6.36 -4 3.72 -4 1 C-2 0 -2 0 0 0 Z " fill="#A0A70B" transform="translate(117,158)"/>
<path d="M0 0 C-0.41421969 4.83256305 -2.46413986 6.82679218 -6 10 C-6.66 9.67 -7.32 9.34 -8 9 C-7.01 7.68 -6.02 6.36 -5 5 C-6.46067199 5.45082469 -7.91848032 5.91093537 -9.375 6.375 C-10.18710938 6.63023437 -10.99921875 6.88546875 -11.8359375 7.1484375 C-14.16459185 7.89854283 -14.16459185 7.89854283 -16 10 C-19.125 10.125 -19.125 10.125 -22 10 C-22 9.01 -22 8.02 -22 7 C-21.14277344 6.74605469 -20.28554687 6.49210938 -19.40234375 6.23046875 C-11.99786161 4.04626343 -11.99786161 4.04626343 -4.8125 1.25 C-2 0 -2 0 0 0 Z " fill="#95994B" transform="translate(163,139)"/>
<path d="M0 0 C0.99 0 1.98 0 3 0 C3.66 3.3 4.32 6.6 5 10 C6.32 10 7.64 10 9 10 C8.67 11.65 8.34 13.3 8 15 C5.36 14.67 2.72 14.34 0 14 C0.33 12.35 0.66 10.7 1 9 C0.34 8.67 -0.32 8.34 -1 8 C-0.34 8 0.32 8 1 8 C1 7.34 1 6.68 1 6 C0.01 6.33 -0.98 6.66 -2 7 C-2 5.35 -2 3.7 -2 2 C-1.34 2 -0.68 2 0 2 C0 1.34 0 0.68 0 0 Z " fill="#F8FB26" transform="translate(79,159)"/>
<path d="M0 0 C13.25 0 13.25 0 17 1 C16.1875 3.4375 16.1875 3.4375 15 6 C14.01 6.33 13.02 6.66 12 7 C11.01 6.34 10.02 5.68 9 5 C8.67 5.33 8.34 5.66 8 6 C6.00041636 6.04080783 3.99954746 6.04254356 2 6 C1.67 5.34 1.34 4.68 1 4 C0.34 4.99 -0.32 5.98 -1 7 C-0.67 4.69 -0.34 2.38 0 0 Z " fill="#928408" transform="translate(94,161)"/>
<path d="M0 0 C3.50627392 1.75313696 6.09334705 3.41630849 9 6 C9 6.66 9 7.32 9 8 C9.70511719 8.08121094 10.41023438 8.16242188 11.13671875 8.24609375 C14.70062198 9.18447482 16.88507864 10.84048138 19.8125 13.0625 C20.78832031 13.79597656 21.76414062 14.52945313 22.76953125 15.28515625 C23.50558594 15.85105469 24.24164063 16.41695312 25 17 C21.98968256 17.93423645 21.13349732 18.04449911 18 17 C17.3162955 15.67532254 16.65035814 14.34136367 16 13 C11.68630028 10.12420019 8.19265239 9 3 9 C2.01 6.03 1.02 3.06 0 0 Z " fill="#EB4C8E" transform="translate(46,106)"/>
<path d="M0 0 C1.4540625 1.1446875 1.4540625 1.1446875 2.9375 2.3125 C6.97672122 5.14646973 11.0143339 7.50653817 16 8 C18.98259897 7.09828403 21.43531311 5.75405016 24 4 C22.80910646 7.57268063 21.35322602 8.39375364 18.11328125 10.14453125 C14.54053913 11.59079839 10.84313335 12.03913578 7 12 C3.76140913 10.38070456 3.32339087 7.25333589 2 4 C1.34711373 2.65986503 0.68774405 1.32258472 0 0 Z " fill="#BE6786" transform="translate(94,84)"/>
<path d="M0 0 C5.90528268 0.38832925 10.75789181 1.16052473 16 4 C17.1406356 7.42190681 16.83489425 8.26170231 15.6875 11.5625 C15.42324219 12.34753906 15.15898438 13.13257813 14.88671875 13.94140625 C14 16 14 16 12 18 C11.85304688 17.06027344 11.85304688 17.06027344 11.703125 16.1015625 C11.55359375 15.28429688 11.4040625 14.46703125 11.25 13.625 C11.11078125 12.81289063 10.9715625 12.00078125 10.828125 11.1640625 C10.18250739 8.82290908 10.18250739 8.82290908 7.921875 7.7109375 C7.28765625 7.47632813 6.6534375 7.24171875 6 7 C6 6.34 6 5.68 6 5 C8.375 5.3125 8.375 5.3125 11 6 C11.99 7.485 11.99 7.485 13 9 C13.33 8.01 13.66 7.02 14 6 C12.02 5.34 10.04 4.68 8 4 C8 3.34 8 2.68 8 2 C5.36 1.67 2.72 1.34 0 1 C0 0.67 0 0.34 0 0 Z " fill="#46AA7E" transform="translate(103,7)"/>
<path d="M0 0 C5.94 1.485 5.94 1.485 12 3 C12 4.32 12 5.64 12 7 C17.28 7.99 22.56 8.98 28 10 C28.33 10.99 28.66 11.98 29 13 C22.1510512 12.56514611 14.55627826 11.63056083 9.50390625 6.47265625 C7.7157771 4.72168303 6.16680602 4.1229988 3.8125 3.3125 C3.09707031 3.06113281 2.38164063 2.80976563 1.64453125 2.55078125 C1.10183594 2.36902344 0.55914062 2.18726563 0 2 C0 1.34 0 0.68 0 0 Z " fill="#A0A333" transform="translate(34,161)"/>
<path d="M0 0 C1.60294922 0.01353516 1.60294922 0.01353516 3.23828125 0.02734375 C4.04652344 0.03894531 4.85476562 0.05054688 5.6875 0.0625 C5.6875 0.7225 5.6875 1.3825 5.6875 2.0625 C4.68332031 2.12308594 3.67914063 2.18367187 2.64453125 2.24609375 C-6.01453244 2.7745263 -14.66494347 3.36654939 -23.3125 4.0625 C-23.3125 6.7025 -23.3125 9.3425 -23.3125 12.0625 C-24.6325 11.7325 -25.9525 11.4025 -27.3125 11.0625 C-27.3125 10.0725 -27.3125 9.0825 -27.3125 8.0625 C-26.6525 8.0625 -25.9925 8.0625 -25.3125 8.0625 C-25.6425 6.0825 -25.9725 4.1025 -26.3125 2.0625 C-21.98151288 1.17409239 -17.9520582 0.9996962 -13.55859375 1.125 C-11.2736379 1.12754829 -11.2736379 1.12754829 -8.9296875 0.56640625 C-5.90013271 -0.01689609 -3.08275412 -0.03387642 0 0 Z " fill="#E8E45C" transform="translate(98.3125,154.9375)"/>
<path d="M0 0 C0 2.97 0 5.94 0 9 C-2 7 -2 7 -3 4 C-8.74058626 4.37438606 -12.81649127 6.21320279 -17.86328125 8.94140625 C-20 10 -20 10 -22 10 C-22.33 10.99 -22.66 11.98 -23 13 C-23.33 12.01 -23.66 11.02 -24 10 C-22 8 -22 8 -19 6 C-17.68 6 -16.36 6 -15 6 C-15 5.34 -15 4.68 -15 4 C-10.03222204 1.71482214 -5.56911579 0 0 0 Z " fill="#3E9E6F" transform="translate(115,19)"/>
<path d="M0 0 C1.33457248 0.66418259 2.66756514 1.33153941 4 2 C4.80695313 2.40476562 5.61390625 2.80953125 6.4453125 3.2265625 C15.36275503 7.88027158 23.11521325 13.65622747 30 21 C29.67 21.99 29.34 22.98 29 24 C28.34 24 27.68 24 27 24 C26.7525 22.9790625 26.7525 22.9790625 26.5 21.9375 C22.67531239 14.44748676 14.60647159 9.925566 7 7 C4.10817888 5.72419656 2.03823147 4.44587776 0 2 C0 1.34 0 0.68 0 0 Z " fill="#C06F8B" transform="translate(73,124)"/>
<path d="M0 0 C0 2.31 0 4.62 0 7 C-1.77131561 6.69024532 -3.54203778 6.37709575 -5.3125 6.0625 C-6.29863281 5.88847656 -7.28476562 5.71445313 -8.30078125 5.53515625 C-11 5 -11 5 -14 4 C-13.34 4 -12.68 4 -12 4 C-12 3.01 -12 2.02 -12 1 C-7.9472484 0.01751476 -4.16138263 -0.08159574 0 0 Z " fill="#F7F835" transform="translate(45,157)"/>
<path d="M0 0 C0.66 1.32 1.32 2.64 2 4 C0.43840941 4.48212214 -1.12431928 4.96055873 -2.6875 5.4375 C-3.55761719 5.70433594 -4.42773438 5.97117187 -5.32421875 6.24609375 C-7.87025921 6.96344529 -10.4003423 7.517541 -13 8 C-13 8.66 -13 9.32 -13 10 C-13.99 9.67 -14.98 9.34 -16 9 C-14.55309452 7.78863727 -13.10480774 6.57887328 -11.6484375 5.37890625 C-10.21668657 4.18125678 -8.82326678 2.93807003 -7.4375 1.6875 C-4.66989655 -0.22853316 -3.29242624 -0.37627728 0 0 Z " fill="#0EAC62" transform="translate(113,15)"/>
<path d="M0 0 C1.58409994 0.11487748 3.16728963 0.24234508 4.75 0.375 C6.07257813 0.47941406 6.07257813 0.47941406 7.421875 0.5859375 C9.99066382 0.99850055 11.75841015 1.71160957 14 3 C13.67 3.66 13.34 4.32 13 5 C11.68 5 10.36 5 9 5 C9.33 7.97 9.66 10.94 10 14 C9.01 13.67 8.02 13.34 7 13 C7 10.36 7 7.72 7 5 C4.69 4.34 2.38 3.68 0 3 C0 2.01 0 1.02 0 0 Z " fill="#F5F63C" transform="translate(60,154)"/>
<path d="M0 0 C3.94727588 -0.17942163 6.5980513 -0.09350689 10 2 C10 2.66 10 3.32 10 4 C9.34 4 8.68 4 8 4 C8.33 5.32 8.66 6.64 9 8 C6.36 8 3.72 8 1 8 C1.33 6.68 1.66 5.36 2 4 C1.34 4 0.68 4 0 4 C0 2.68 0 1.36 0 0 Z " fill="#B2B720" transform="translate(83,159)"/>
<path d="M0 0 C0 0.66 0 1.32 0 2 C-8.73952546 3.44796872 -17.13911833 4.29211698 -26 4 C-26 3.34 -26 2.68 -26 2 C-24.77023438 1.86722656 -23.54046875 1.73445312 -22.2734375 1.59765625 C-20.64061531 1.41935957 -19.00780334 1.2409692 -17.375 1.0625 C-16.56675781 0.97548828 -15.75851563 0.88847656 -14.92578125 0.79882812 C-11.43267497 0.41543841 -7.99880684 -0.00021682 -4.5390625 -0.62890625 C-2 -1 -2 -1 0 0 Z " fill="#9D9D3E" transform="translate(130,153)"/>
<path d="M0 0 C0.33 0.66 0.66 1.32 1 2 C1.66 2.33 2.32 2.66 3 3 C2 5 2 5 0.0390625 5.8515625 C-0.75757813 6.10679687 -1.55421875 6.36203125 -2.375 6.625 C-3.16648438 6.88539063 -3.95796875 7.14578125 -4.7734375 7.4140625 C-7 8 -7 8 -10 8 C-10 6.02 -10 4.04 -10 2 C-2.25 1.875 -2.25 1.875 0 3 C0 2.01 0 1.02 0 0 Z " fill="#F6F637" transform="translate(158,156)"/>
<path d="M0 0 C5.48061481 1.97884145 9.80708774 4.96578362 14 9 C15.5625 12.4375 15.5625 12.4375 16 15 C13.69 15.33 11.38 15.66 9 16 C9.165 15.05125 9.33 14.1025 9.5 13.125 C10.0526635 10.19831099 10.0526635 10.19831099 10 8 C7.03812728 5.82796 4.49314009 4.16438003 1 3 C0.67 2.01 0.34 1.02 0 0 Z " fill="#EC4F8F" transform="translate(83,132)"/>
<path d="M0 0 C0.66 0.33 1.32 0.66 2 1 C-4.01872481 6.43720551 -8.88273263 9.16963236 -17 10 C-17 9.34 -17 8.68 -17 8 C-15.88625 7.566875 -14.7725 7.13375 -13.625 6.6875 C-9.82487666 5.30088881 -9.82487666 5.30088881 -8 2 C-5.5625 1.375 -5.5625 1.375 -3 1 C-2.01 0.67 -1.02 0.34 0 0 Z " fill="#12AA64" transform="translate(133,130)"/>
<path d="M0 0 C0.33 0 0.66 0 1 0 C1.738041 20.15261959 1.738041 20.15261959 -3 28 C-4.078125 26.203125 -4.078125 26.203125 -5 24 C-4.31690006 22.22394016 -3.6218893 20.45164441 -2.87109375 18.703125 C-0.94044753 12.7120614 -0.643537 6.23852336 0 0 Z " fill="#F14D94" transform="translate(128,40)"/>
<path d="M0 0 C0.99 0 1.98 0 3 0 C3 0.66 3 1.32 3 2 C4.13888672 2.09087891 4.13888672 2.09087891 5.30078125 2.18359375 C6.29464844 2.26738281 7.28851563 2.35117188 8.3125 2.4375 C9.29863281 2.51871094 10.28476562 2.59992188 11.30078125 2.68359375 C14 3 14 3 17 4 C17 4.66 17 5.32 17 6 C14.69 6 12.38 6 10 6 C10 6.99 10 7.98 10 9 C6.78956118 7.61811547 4.95063635 6.07578097 2.75 3.375 C2.22921875 2.74335938 1.7084375 2.11171875 1.171875 1.4609375 C0.78515625 0.97882813 0.3984375 0.49671875 0 0 Z " fill="#EFED4E" transform="translate(35,143)"/>
<path d="M0 0 C3.42242447 1.14080816 3.88074799 1.882589 5.875 4.75 C7.72062258 7.31822294 9.53933439 9.67431213 11.8125 11.875 C14 14 14 14 15 16 C10.51899299 14.59168351 8.17373705 12.41176733 5 9 C4.071875 8.154375 3.14375 7.30875 2.1875 6.4375 C0 4 0 4 0 0 Z " fill="#789886" transform="translate(48,101)"/>
<path d="M0 0 C6.35532683 5.49649888 7.98203104 11.29529932 8.6875 19.5 C8.80317426 21.33264325 8.91134946 23.16585091 9 25 C8.34 25 7.68 25 7 25 C6.99742187 24.33355469 6.99484375 23.66710937 6.9921875 22.98046875 C6.69728949 15.95206621 4.96716861 11.28567531 1.27734375 5.3125 C0 3 0 3 0 0 Z " fill="#44976C" transform="translate(147,78)"/>
<path d="M0 0 C0.99 0.33 1.98 0.66 3 1 C-0.13922331 5.52048157 -3.21495828 7.51545911 -8 10 C-8.66 8.02 -9.32 6.04 -10 4 C-9.36191406 3.79503906 -8.72382813 3.59007812 -8.06640625 3.37890625 C-7.24011719 3.10949219 -6.41382813 2.84007812 -5.5625 2.5625 C-4.73878906 2.29566406 -3.91507813 2.02882812 -3.06640625 1.75390625 C-1.03780412 1.17844506 -1.03780412 1.17844506 0 0 Z " fill="#EAEF48" transform="translate(156,143)"/>
<path d="M0 0 C3.37331354 2.24887569 3.8358179 3.2387963 5 7 C5 8.32 5 9.64 5 11 C5.99 11 6.98 11 8 11 C7.67 13.64 7.34 16.28 7 19 C6.01 19.33 5.02 19.66 4 20 C3.87882813 19.05898437 3.75765625 18.11796875 3.6328125 17.1484375 C3.46523437 15.90320313 3.29765625 14.65796875 3.125 13.375 C2.96257812 12.14523438 2.80015625 10.91546875 2.6328125 9.6484375 C2.04516311 6.26038483 1.18011878 3.22301349 0 0 Z " fill="#A87279" transform="translate(151,81)"/>
<path d="M0 0 C0.66 0 1.32 0 2 0 C0.7874262 3.72433382 -0.50859979 7.37802806 -2 11 C-1.34 11.33 -0.68 11.66 0 12 C0 11.34 0 10.68 0 10 C1.65 9.67 3.3 9.34 5 9 C1.82679218 12.53586014 -0.16743695 14.58578031 -5 15 C-4.5188509 9.22621075 -2.81532819 5.04140164 0 0 Z " fill="#19BF73" transform="translate(91,109)"/>
<path d="M0 0 C0.33 0.66 0.66 1.32 1 2 C-0.98 4.97 -0.98 4.97 -3 8 C-2.30132812 7.71125 -1.60265625 7.4225 -0.8828125 7.125 C0.02726562 6.75375 0.93734375 6.3825 1.875 6 C2.77992187 5.62875 3.68484375 5.2575 4.6171875 4.875 C7 4 7 4 9 4 C9 4.99 9 5.98 9 7 C8.15695313 7.19916016 8.15695313 7.19916016 7.296875 7.40234375 C4.90633847 8.02437111 2.58964225 8.77115041 0.25 9.5625 C-0.54921875 9.83191406 -1.3484375 10.10132812 -2.171875 10.37890625 C-2.77515625 10.58386719 -3.3784375 10.78882812 -4 11 C-4.66 9.68 -5.32 8.36 -6 7 C-5.34 7 -4.68 7 -4 7 C-3.71125 6.21625 -3.4225 5.4325 -3.125 4.625 C-2 2 -2 2 0 0 Z " fill="#D7538A" transform="translate(123,68)"/>
<path d="M0 0 C1.9375 0.625 1.9375 0.625 4 2 C4.37938617 3.99177741 4.70285977 5.99430341 5 8 C5.99790767 10.1474973 7.09783159 12.20165897 8.2578125 14.265625 C8.50273438 14.83796875 8.74765625 15.4103125 9 16 C8.67 16.66 8.34 17.32 8 18 C3.33231374 12.21676608 0 7.70560113 0 0 Z " fill="#C16D8A" transform="translate(85,66)"/>
<path d="M0 0 C0.99 0 1.98 0 3 0 C1.26664457 6.43817731 0.02376591 10.4316802 -5.125 14.75 C-6.21167969 15.67039062 -6.21167969 15.67039062 -7.3203125 16.609375 C-7.87460938 17.06828125 -8.42890625 17.5271875 -9 18 C-9.33 17.01 -9.66 16.02 -10 15 C-9.0409375 14.5978125 -9.0409375 14.5978125 -8.0625 14.1875 C-5.66868314 13.11332248 -5.66868314 13.11332248 -5 10 C-4.34 10 -3.68 10 -3 10 C-2.67 8.35 -2.34 6.7 -2 5 C-1.34 5 -0.68 5 0 5 C0 3.35 0 1.7 0 0 Z " fill="#10AE65" transform="translate(146,109)"/>
<path d="M0 0 C0.99 0.33 1.98 0.66 3 1 C3 1.66 3 2.32 3 3 C2.01 3.66 1.02 4.32 0 5 C-0.69166623 7.18204162 -0.69166623 7.18204162 -1 9.6875 C-1.77441656 14.20930514 -3.02506564 17.8705918 -5 22 C-5.33 22 -5.66 22 -6 22 C-4.33653846 4.53365385 -4.33653846 4.53365385 0 0 Z " fill="#CA8CA1" transform="translate(118,21)"/>
<path d="M0 0 C1.65 0.33 3.3 0.66 5 1 C4.33984375 2.87109375 4.33984375 2.87109375 3 5 C0.50390625 6.16015625 0.50390625 6.16015625 -2.4375 7.0625 C-6.09560743 8.19743879 -8.51360583 9.02475545 -11 12 C-11.66 11.34 -12.32 10.68 -13 10 C-12.34 10 -11.68 10 -11 10 C-11 9.01 -11 8.02 -11 7 C-9.56445975 6.49440092 -8.1264798 5.9957251 -6.6875 5.5 C-5.88699219 5.2215625 -5.08648437 4.943125 -4.26171875 4.65625 C-2 4 -2 4 1 4 C0.67 2.68 0.34 1.36 0 0 Z " fill="#B5B93F" transform="translate(159,157)"/>
<path d="M0 0 C3.465 1.98 3.465 1.98 7 4 C7 4.66 7 5.32 7 6 C2.38 6.33 -2.24 6.66 -7 7 C-7 7.99 -7 8.98 -7 10 C-7.99 10 -8.98 10 -10 10 C-9.81640625 8.109375 -9.81640625 8.109375 -9 6 C-6.71484375 4.953125 -6.71484375 4.953125 -3.9375 4.25 C-2.55884766 3.88648438 -2.55884766 3.88648438 -1.15234375 3.515625 C-0.44207031 3.34546875 0.26820312 3.1753125 1 3 C0.67 2.01 0.34 1.02 0 0 Z " fill="#A7A936" transform="translate(40,151)"/>
<path d="M0 0 C0.33 0.66 0.66 1.32 1 2 C-0.375 3.5 -0.375 3.5 -2 5 C-2.66 5 -3.32 5 -4 5 C-4 5.66 -4 6.32 -4 7 C-6.07914664 7.70005949 -8.16351586 8.38462244 -10.25 9.0625 C-11.41015625 9.44535156 -12.5703125 9.82820313 -13.765625 10.22265625 C-16.80077085 10.95211763 -18.15703213 11.11889082 -21 10 C-19.845 9.566875 -18.69 9.13375 -17.5 8.6875 C-16.40751953 8.27371094 -16.40751953 8.27371094 -15.29296875 7.8515625 C-13.82356108 7.30585403 -12.34730091 6.77805844 -10.86328125 6.2734375 C-6.56408223 4.78304851 -3.43002142 3.10845691 0 0 Z " fill="#40AD7C" transform="translate(143,98)"/>
<path d="M0 0 C0 0.66 0 1.32 0 2 C-1.98 2.33 -3.96 2.66 -6 3 C-5.34 4.65 -4.68 6.3 -4 8 C-6.97 7.01 -9.94 6.02 -13 5 C-10.57207891 1.23672231 -10.57207891 1.23672231 -8.1875 0.25 C-5.44459813 -0.0634745 -2.75800578 -0.06268195 0 0 Z " fill="#58997B" transform="translate(147,76)"/>
<path d="M0 0 C2.375 3 2.375 3 4 6 C3.67 6.66 3.34 7.32 3 8 C1.5 6.625 1.5 6.625 0 5 C0 4.34 0 3.68 0 3 C-1.58467728 3.28427417 -3.1677057 3.57774818 -4.75 3.875 C-5.63171875 4.03742188 -6.5134375 4.19984375 -7.421875 4.3671875 C-9.86947744 4.96796264 -11.80599857 5.77997117 -14 7 C-6.19879518 -1.01204819 -6.19879518 -1.01204819 0 0 Z " fill="#B4728A" transform="translate(147,73)"/>
<path d="M0 0 C1.32 0.66 2.64 1.32 4 2 C2.35 2.33 0.7 2.66 -1 3 C-1.33 3.99 -1.66 4.98 -2 6 C-3.97133986 7.37535339 -5.97681922 8.70211044 -8 10 C-10.04718185 11.6174123 -12.01842192 13.30150451 -14 15 C-12.125 10.25 -12.125 10.25 -11 8 C-10.01 8 -9.02 8 -8 8 C-8 7.34 -8 6.68 -8 6 C-2.58823529 2 -2.58823529 2 0 2 C0 1.34 0 0.68 0 0 Z " fill="#29BF78" transform="translate(107,13)"/>
<path d="M0 0 C0.763125 0.804375 1.52625 1.60875 2.3125 2.4375 C4.79430898 5.16799024 4.79430898 5.16799024 8 6 C8 6.66 8 7.32 8 8 C5.03 8.66 2.06 9.32 -1 10 C-1 9.34 -1 8.68 -1 8 C-1.66 8 -2.32 8 -3 8 C-2.67 7.34 -2.34 6.68 -2 6 C-1.34 6.33 -0.68 6.66 0 7 C0 4.69 0 2.38 0 0 Z " fill="#2BA76E" transform="translate(114,102)"/>
<path d="M0 0 C1.51400391 0.01740234 1.51400391 0.01740234 3.05859375 0.03515625 C4.07050781 0.04417969 5.08242187 0.05320313 6.125 0.0625 C7.29869141 0.07990234 7.29869141 0.07990234 8.49609375 0.09765625 C8.49609375 2.73765625 8.49609375 5.37765625 8.49609375 8.09765625 C7.50609375 7.76765625 6.51609375 7.43765625 5.49609375 7.09765625 C5.49609375 5.77765625 5.49609375 4.45765625 5.49609375 3.09765625 C4.50609375 3.09765625 3.51609375 3.09765625 2.49609375 3.09765625 C1.50609375 4.58265625 1.50609375 4.58265625 0.49609375 6.09765625 C0.49609375 4.77765625 0.49609375 3.45765625 0.49609375 2.09765625 C-0.82390625 1.76765625 -2.14390625 1.43765625 -3.50390625 1.09765625 C-2.50390625 0.09765625 -2.50390625 0.09765625 0 0 Z " fill="#F2EE39" transform="translate(104.50390625,158.90234375)"/>
<path d="M0 0 C0.66 1.32 1.32 2.64 2 4 C-2.88234611 6.21924823 -7.64923372 7 -13 7 C-8.72171358 3.74850232 -5.26170694 1.41167747 0 0 Z " fill="#2DAC6C" transform="translate(68,4)"/>
<path d="M0 0 C0.66 0.33 1.32 0.66 2 1 C-1.90800545 6.85044603 -5.70856252 12.32384594 -11 17 C-11.66 17 -12.32 17 -13 17 C-11.44396229 13.18063472 -9.04395069 10.73955562 -6 8 C-5.34 8 -4.68 8 -4 8 C-3.71125 7.236875 -3.4225 6.47375 -3.125 5.6875 C-2 3 -2 3 0 0 Z " fill="#3CA071" transform="translate(149,112)"/>
<path d="M0 0 C-2.64 0.99 -5.28 1.98 -8 3 C-8 3.33 -8 3.66 -8 4 C-9.98 4 -11.96 4 -14 4 C-14 3.01 -14 2.02 -14 1 C-12.42298018 0.44021816 -10.83800758 -0.09719401 -9.25 -0.625 C-7.92742187 -1.07746094 -7.92742187 -1.07746094 -6.578125 -1.5390625 C-3.58982529 -2.07333427 -2.50076998 -1.62433191 0 0 Z " fill="#BCC060" transform="translate(155,145)"/>
<path d="M0 0 C3.28186266 0.56583839 4.89184922 1.41272404 7 4 C7.66666667 5.33333333 8.33333333 6.66666667 9 8 C9.7734375 8.7115625 9.7734375 8.7115625 10.5625 9.4375 C12.45263121 11.49199044 12.6324247 13.27994277 13 16 C8.08292963 11.17287604 3.25121019 6.11992507 0 0 Z " fill="#D36391" transform="translate(60,131)"/>
<path d="M0 0 C1.98 0 3.96 0 6 0 C6.33 1.98 6.66 3.96 7 6 C5.35 6 3.7 6 2 6 C1.67 5.34 1.34 4.68 1 4 C0.34 4.99 -0.32 5.98 -1 7 C-0.67 4.69 -0.34 2.38 0 0 Z " fill="#98930E" transform="translate(94,161)"/>
<path d="M0 0 C1.485 0.99 1.485 0.99 3 2 C2.67 2.66 2.34 3.32 2 4 C2.85464844 4.12117187 3.70929687 4.24234375 4.58984375 4.3671875 C5.69457031 4.53476563 6.79929687 4.70234375 7.9375 4.875 C9.59072266 5.11863281 9.59072266 5.11863281 11.27734375 5.3671875 C12.17582031 5.57601562 13.07429688 5.78484375 14 6 C14.33 6.66 14.66 7.32 15 8 C13.41632253 7.85795259 11.83306682 7.71119847 10.25 7.5625 C9.36828125 7.48128906 8.4865625 7.40007812 7.578125 7.31640625 C5.30649548 7.03761535 3.20148177 6.61209423 1 6 C0.67 4.02 0.34 2.04 0 0 Z " fill="#F5F73B" transform="translate(47,163)"/>
<path d="M0 0 C4.05606165 0.46800711 7.46588679 0.87953208 11 3 C11 3.66 11 4.32 11 5 C10.01 4.67 9.02 4.34 8 4 C5.19209526 3.97039859 2.4000277 4.06585928 -0.40625 4.16015625 C-3 4 -3 4 -6 2 C-4.02 2 -2.04 2 0 2 C0 1.34 0 0.68 0 0 Z " fill="#7B772B" transform="translate(53,147)"/>
<path d="M0 0 C0.33 0 0.66 0 1 0 C1.99 5.61 2.98 11.22 4 17 C3.01 16.67 2.02 16.34 1 16 C-0.67636301 10.88268133 -1.33181527 6.41964933 -1 1 C-0.67 0.67 -0.34 0.34 0 0 Z " fill="#62C098" transform="translate(38,74)"/>
<path d="M0 0 C0.33 0 0.66 0 1 0 C1 2.31 1 4.62 1 7 C-3.29 7 -7.58 7 -12 7 C-12.33 6.34 -12.66 5.68 -13 5 C-4.57142857 3.71428571 -4.57142857 3.71428571 0 5 C0 3.35 0 1.7 0 0 Z " fill="#F7FA35" transform="translate(126,162)"/>
<path d="M0 0 C4.29 1.32 8.58 2.64 13 4 C12.67 4.99 12.34 5.98 12 7 C11.0409375 6.566875 11.0409375 6.566875 10.0625 6.125 C6.11589708 4.6752275 2.1125393 3.84221938 -2 3 C-1.34 2.67 -0.68 2.34 0 2 C0 1.34 0 0.68 0 0 Z " fill="#B2B052" transform="translate(40,142)"/>
<path d="M0 0 C0.99 0.495 0.99 0.495 2 1 C2.625 4.0625 2.625 4.0625 3 7 C5.31 7 7.62 7 10 7 C7.21592961 10.08236365 6.19174654 10.95206337 2 12 C1.34 8.04 0.68 4.08 0 0 Z " fill="#687D6B" transform="translate(96,88)"/>
<path d="M0 0 C0.33 0.66 0.66 1.32 1 2 C0 4 0 4 -2 6 C-8.14922276 6.7295688 -12.36201467 5.41627943 -18 3 C-15.0136803 2.07520422 -14.15855692 1.94602318 -11.0625 3 C-7.73937287 4.08510274 -6.26294048 4.14643855 -3 3 C-1.20614008 1.5420814 -1.20614008 1.5420814 0 0 Z " fill="#D46794" transform="translate(105,64)"/>
<path d="M0 0 C2.25 0.125 2.25 0.125 5 1 C9.06584362 5.81481481 9.06584362 5.81481481 8.875 9.25 C8 11 8 11 6 13 C5.90203125 12.37351562 5.8040625 11.74703125 5.703125 11.1015625 C5.55359375 10.28429688 5.4040625 9.46703125 5.25 8.625 C5.11078125 7.81289063 4.9715625 7.00078125 4.828125 6.1640625 C4.18250739 3.82290908 4.18250739 3.82290908 1.921875 2.7109375 C1.28765625 2.47632813 0.6534375 2.24171875 0 2 C0 1.34 0 0.68 0 0 Z " fill="#5CCA93" transform="translate(109,12)"/>
<path d="M0 0 C1.8871875 0.061875 1.8871875 0.061875 3.8125 0.125 C4.1425 1.445 4.4725 2.765 4.8125 4.125 C-1.1275 3.135 -1.1275 3.135 -7.1875 2.125 C-4.09861478 0.06574319 -3.47814073 -0.1140374 0 0 Z " fill="#AEAE1F" transform="translate(57.1875,149.875)"/>
<path d="M0 0 C0.84755859 0.00322266 1.69511719 0.00644531 2.56835938 0.00976562 C3.8899707 0.02233398 3.8899707 0.02233398 5.23828125 0.03515625 C6.57729492 0.04192383 6.57729492 0.04192383 7.94335938 0.04882812 C10.14590112 0.06060642 12.34830724 0.07705461 14.55078125 0.09765625 C14.55078125 0.42765625 14.55078125 0.75765625 14.55078125 1.09765625 C13.54917969 1.15824219 12.54757813 1.21882812 11.515625 1.28125 C10.17316794 1.3657403 8.83072053 1.45038393 7.48828125 1.53515625 C6.17730469 1.61636719 4.86632812 1.69757812 3.515625 1.78125 C-0.18585113 2.07663874 -3.78292323 2.53031013 -7.44921875 3.09765625 C-7.44921875 2.43765625 -7.44921875 1.77765625 -7.44921875 1.09765625 C-4.6251011 0.1562837 -2.92003843 -0.01959757 0 0 Z " fill="#49A87A" transform="translate(76.44921875,2.90234375)"/>
<path d="M0 0 C4.93054827 2.71683272 9.46284362 5.66657898 14 9 C10.98968256 9.93423645 10.13349732 10.04449911 7 9 C6.71125 8.38125 6.4225 7.7625 6.125 7.125 C4.64638666 4.33206369 2.68805633 3.55624314 0 2 C0 1.34 0 0.68 0 0 Z " fill="#DB6492" transform="translate(57,114)"/>
<path d="M0 0 C0 0.99 0 1.98 0 3 C0.66 3 1.32 3 2 3 C2 4.32 2 5.64 2 7 C0.35 7 -1.3 7 -3 7 C-3.33 5.02 -3.66 3.04 -4 1 C-2 0 -2 0 0 0 Z " fill="#CBCB1D" transform="translate(117,158)"/>
<path d="M0 0 C0.66 0.33 1.32 0.66 2 1 C2 2.65 2 4.3 2 6 C-4.28571429 8.42857143 -4.28571429 8.42857143 -8 7 C-5.64031256 4.90250005 -4.45383006 4.03094296 -1.25 3.8125 C-0.13625 3.9053125 -0.13625 3.9053125 1 4 C0.67 2.68 0.34 1.36 0 0 Z " fill="#D45882" transform="translate(98,143)"/>
<path d="M0 0 C0.103125 0.639375 0.20625 1.27875 0.3125 1.9375 C0.539375 2.618125 0.76625 3.29875 1 4 C1.99 4.33 2.98 4.66 4 5 C3.01 5.495 3.01 5.495 2 6 C0.08984375 5.29296875 0.08984375 5.29296875 -2.0625 4.1875 C-2.77535156 3.83042969 -3.48820312 3.47335938 -4.22265625 3.10546875 C-6 2 -6 2 -7 0 C-3.86650268 -1.04449911 -3.01031744 -0.93423645 0 0 Z " fill="#20AA69" transform="translate(68,114)"/>
<path d="M0 0 C0.66 0.33 1.32 0.66 2 1 C1.60167969 1.50789063 1.20335937 2.01578125 0.79296875 2.5390625 C-2.28566175 6.53903498 -4.91595614 10.36879143 -7 15 C-7.66 15 -8.32 15 -9 15 C-9 14.01 -9 13.02 -9 12 C-8.34 12 -7.68 12 -7 12 C-6.773125 11.13375 -6.54625 10.2675 -6.3125 9.375 C-4.75974905 5.38221186 -2.85680105 3.15751695 0 0 Z " fill="#13AC68" transform="translate(52,15)"/>
<path d="M0 0 C1.9375 0.625 1.9375 0.625 4 2 C5.56606447 6.81005517 4.59761526 10.30113159 3 15 C2.34 14.34 1.68 13.68 1 13 C1.10599163 10.7123474 1.51409747 8.54393952 1.90625 6.2890625 C2.01572641 3.61601353 1.36436415 2.26360416 0 0 Z " fill="#47AE7A" transform="translate(143,84)"/>
<path d="M0 0 C0 2.31 0 4.62 0 7 C-0.99 6.67 -1.98 6.34 -3 6 C-2.34 6 -1.68 6 -1 6 C-1.33 5.01 -1.66 4.02 -2 3 C-4.97 3 -7.94 3 -11 3 C-7.25593545 0.50395696 -4.45848315 0 0 0 Z " fill="#F7F632" transform="translate(146,151)"/>
<path d="M0 0 C1.65 0 3.3 0 5 0 C4.67 1.32 4.34 2.64 4 4 C3.34 4 2.68 4 2 4 C2 5.32 2 6.64 2 8 C1.34 8 0.68 8 0 8 C0 5.36 0 2.72 0 0 Z " fill="#848704" transform="translate(69,159)"/>
<path d="M0 0 C3.34019306 0.59646305 5.50470633 1.68294159 8 4 C8 4.99 8 5.98 8 7 C9.32 7.33 10.64 7.66 12 8 C10.68 8.33 9.36 8.66 8 9 C7.4225 8.2575 6.845 7.515 6.25 6.75 C4.27746474 4.33912357 2.23955718 2.15957299 0 0 Z " fill="#1FAB69" transform="translate(97,136)"/>
<path d="M0 0 C0.66 0.33 1.32 0.66 2 1 C-2.455 4.465 -2.455 4.465 -7 8 C-7.66 7.67 -8.32 7.34 -9 7 C-3.51752022 1.21293801 -3.51752022 1.21293801 0 0 Z " fill="#329F6B" transform="translate(133,130)"/>
<path d="M0 0 C0.80824219 0.11085938 1.61648437 0.22171875 2.44921875 0.3359375 C3.37154297 0.47902344 3.37154297 0.47902344 4.3125 0.625 C0.96415606 2.39338944 -1.88080655 3.29398318 -5.6875 3.625 C-6.3475 2.965 -7.0075 2.305 -7.6875 1.625 C-4.33422361 -0.61051759 -3.78006343 -0.54783528 0 0 Z " fill="#21B26E" transform="translate(106.6875,111.375)"/>
<path d="M0 0 C1.32 0.33 2.64 0.66 4 1 C2.68 3.64 1.36 6.28 0 9 C-1 5 -1 5 0 3 C-0.99 2.67 -1.98 2.34 -3 2 C-2.01 1.34 -1.02 0.68 0 0 Z " fill="#389169" transform="translate(114,91)"/>
<path d="M0 0 C-0.99 0.495 -0.99 0.495 -2 1 C-1.67 1.99 -1.34 2.98 -1 4 C-2.32 4 -3.64 4 -5 4 C-6.34164079 4.2981424 -7.67851173 4.62243192 -9 5 C-8 2 -8 2 -5.625 0.25 C-3 -1 -3 -1 0 0 Z " fill="#14B26A" transform="translate(63,10)"/>
<path d="M0 0 C0 0.33 0 0.66 0 1 C-2.31 1.66 -4.62 2.32 -7 3 C-6.67 3.66 -6.34 4.32 -6 5 C-8.31 5 -10.62 5 -13 5 C-12.34 4.67 -11.68 4.34 -11 4 C-11 3.01 -11 2.02 -11 1 C-7.26562152 0.12132271 -3.83225427 -0.08912219 0 0 Z " fill="#D1D73E" transform="translate(44,157)"/>
<path d="M0 0 C1.8871875 0.0309375 1.8871875 0.0309375 3.8125 0.0625 C3.4825 0.7225 3.1525 1.3825 2.8125 2.0625 C1.6059375 2.0315625 1.6059375 2.0315625 0.375 2 C-2.12104885 1.76616379 -2.12104885 1.76616379 -3.1875 3.0625 C-5.52047433 3.10342937 -7.85455225 3.10491723 -10.1875 3.0625 C-6.61118771 0.67829181 -4.20439261 -0.06892447 0 0 Z " fill="#E4E33C" transform="translate(130.1875,170.9375)"/>
<path d="M0 0 C1.98 0 3.96 0 6 0 C5.67 1.65 5.34 3.3 5 5 C4.01 5.33 3.02 5.66 2 6 C1.34 4.02 0.68 2.04 0 0 Z " fill="#F5F734" transform="translate(146,147)"/>
<path d="M0 0 C0.99 0.33 1.98 0.66 3 1 C3 1.99 3 2.98 3 4 C7.62 4 12.24 4 17 4 C17 4.33 17 4.66 17 5 C12.05 5 7.1 5 2 5 C1.34 3.35 0.68 1.7 0 0 Z " fill="#C9648D" transform="translate(73,147)"/>
<path d="M0 0 C3.55780196 0.60990891 6.6828589 1.5783681 10 3 C10 3.66 10 4.32 10 5 C8.51793505 4.745504 7.03931385 4.47088238 5.5625 4.1875 C4.73878906 4.03667969 3.91507813 3.88585937 3.06640625 3.73046875 C2.38449219 3.48941406 1.70257812 3.24835938 1 3 C0.67 2.01 0.34 1.02 0 0 Z " fill="#8D8D42" transform="translate(30,139)"/>
<path d="M0 0 C4.19162145 0.95264124 5.7207791 1.63260408 8.375 5.125 C8.91125 6.07375 9.4475 7.0225 10 8 C6.88349604 6.49946106 3.86850702 4.93818042 1 3 C0.67 2.01 0.34 1.02 0 0 Z " fill="#51A275" transform="translate(89,131)"/>
<path d="M0 0 C0 0.66 0 1.32 0 2 C-3.61973402 3.31626692 -6.09567131 4 -10 4 C-10 3.34 -10 2.68 -10 2 C-3.375 0 -3.375 0 0 0 Z " fill="#9EA13B" transform="translate(148,168)"/>
<path d="M0 0 C1.65 0.33 3.3 0.66 5 1 C4.4375 2.9375 4.4375 2.9375 3 5 C-0.625 5.75 -0.625 5.75 -4 6 C-3.34 5.34 -2.68 4.68 -2 4 C-1.01 4 -0.02 4 1 4 C0.67 2.68 0.34 1.36 0 0 Z " fill="#9FA352" transform="translate(159,157)"/>
<path d="M0 0 C0 0.66 0 1.32 0 2 C-1.98 2.33 -3.96 2.66 -6 3 C-6 3.66 -6 4.32 -6 5 C-7.32 4.34 -8.64 3.68 -10 3 C-6.68152292 -0.06320961 -4.44849969 -0.3033068 0 0 Z " fill="#2E9E6D" transform="translate(147,76)"/>
<path d="M0 0 C1.66175734 5.16991173 -0.29635592 9.00264404 -2 14 C-2.33 14 -2.66 14 -3 14 C-2.58846263 9.02906176 -2.20399168 4.55491614 0 0 Z " fill="#D26591" transform="translate(115,29)"/>
<path d="M0 0 C1.65 0 3.3 0 5 0 C5 0.66 5 1.32 5 2 C4.34 2 3.68 2 3 2 C3.33 3.32 3.66 4.64 4 6 C2.68 6 1.36 6 0 6 C0 4.02 0 2.04 0 0 Z " fill="#A19B09" transform="translate(88,161)"/>
<path d="M0 0 C2.375 0.25 2.375 0.25 5 1 C6.3125 3.0625 6.3125 3.0625 7 5 C4.625 4.75 4.625 4.75 2 4 C0.6875 1.9375 0.6875 1.9375 0 0 Z " fill="#F14A8E" transform="translate(147,73)"/>
<path d="M0 0 C0.33 0.66 0.66 1.32 1 2 C0.06421005 4.35981813 -0.93347808 6.69631264 -2 9 C-3.36741555 6.74778616 -4.04066478 5.47442242 -3.8125 2.8125 C-3.544375 2.214375 -3.27625 1.61625 -3 1 C-2.01 0.67 -1.02 0.34 0 0 Z " fill="#D8578B" transform="translate(127,59)"/>
<path d="M0 0 C-4.51667907 3.01111938 -7.6639991 3.10067926 -13 3 C-9.21656826 -0.94792877 -5.07874402 -0.29300446 0 0 Z " fill="#F9F931" transform="translate(126,171)"/>
<path d="M0 0 C1.32 0 2.64 0 4 0 C4 0.66 4 1.32 4 2 C3.34 2 2.68 2 2 2 C2 3.98 2 5.96 2 8 C1.34 8 0.68 8 0 8 C0 5.36 0 2.72 0 0 Z " fill="#969B06" transform="translate(75,159)"/>
<path d="M0 0 C0.33 0.66 0.66 1.32 1 2 C1.66 2.33 2.32 2.66 3 3 C2.67 3.66 2.34 4.32 2 5 C-1.0625 5.625 -1.0625 5.625 -4 6 C-4 5.01 -4 4.02 -4 3 C-2.68 3 -1.36 3 0 3 C0 2.01 0 1.02 0 0 Z " fill="#E3E44A" transform="translate(158,156)"/>
<path d="M0 0 C2.97 0.33 5.94 0.66 9 1 C8.67 1.99 8.34 2.98 8 4 C5.36 3.34 2.72 2.68 0 2 C0 1.34 0 0.68 0 0 Z " fill="#B0AA48" transform="translate(62,152)"/>
<path d="M0 0 C0.33 0.99 0.66 1.98 1 3 C1.66 3.33 2.32 3.66 3 4 C2.34 4 1.68 4 1 4 C0.34 5.65 -0.32 7.3 -1 9 C-1.66 9 -2.32 9 -3 9 C-2.44271087 5.65626525 -1.64826111 2.96687001 0 0 Z " fill="#1FB870" transform="translate(96,100)"/>
<path d="M0 0 C0.99 0 1.98 0 3 0 C2.125 3.875 2.125 3.875 1 5 C-0.66617115 5.04063832 -2.33388095 5.042721 -4 5 C-2.1875 2.5 -2.1875 2.5 0 0 Z " fill="#EA4C8C" transform="translate(133,74)"/>
<path d="M0 0 C0.99 0.33 1.98 0.66 3 1 C1.68 2.32 0.36 3.64 -1 5 C-0.34 5.66 0.32 6.32 1 7 C-0.32 7 -1.64 7 -3 7 C-2.25 2.25 -2.25 2.25 0 0 Z " fill="#BDBB51" transform="translate(153,149)"/>
<path d="M0 0 C0.99 0 1.98 0 3 0 C3 0.66 3 1.32 3 2 C3.99 2.33 4.98 2.66 6 3 C2.25 5 2.25 5 0 5 C0 3.35 0 1.7 0 0 Z " fill="#ED5092" transform="translate(70,124)"/>
<path d="M0 0 C0.33 0.66 0.66 1.32 1 2 C1.66 2 2.32 2 3 2 C3 2.66 3 3.32 3 4 C-0.3 3.67 -3.6 3.34 -7 3 C-7 2.67 -7 2.34 -7 2 C-4.69 1.34 -2.38 0.68 0 0 Z " fill="#14AB65" transform="translate(110,108)"/>
<path d="M0 0 C0.66 0.33 1.32 0.66 2 1 C0.3125 3.5 0.3125 3.5 -2 6 C-4.75 6.3125 -4.75 6.3125 -7 6 C-4.83312509 3.72478134 -2.54379491 1.84205838 0 0 Z " fill="#419C6E" transform="translate(106,95)"/>
<path d="M0 0 C2.61500768 2.36595933 4.38999603 4.86049226 6 8 C5.67 8.66 5.34 9.32 5 10 C1.32769295 6.92000054 0.43197635 4.7517398 0 0 Z " fill="#66B08A" transform="translate(42,91)"/>
<path d="M0 0 C0.66 0 1.32 0 2 0 C2.33 0.66 2.66 1.32 3 2 C5.52733235 2.65555119 5.52733235 2.65555119 8 3 C7.67 3.66 7.34 4.32 7 5 C6.34 5 5.68 5 5 5 C4.67 5.66 4.34 6.32 4 7 C0 1.125 0 1.125 0 0 Z " fill="#E9528D" transform="translate(92,79)"/>
<path d="M0 0 C0.66 0 1.32 0 2 0 C2.52992692 1.45505358 3.0486789 2.91418127 3.5625 4.375 C3.85253906 5.18710938 4.14257812 5.99921875 4.44140625 6.8359375 C5 9 5 9 4 11 C3.32591692 9.73308493 2.66099503 8.46129251 2 7.1875 C1.62875 6.47980469 1.2575 5.77210937 0.875 5.04296875 C0 3 0 3 0 0 Z " fill="#5C9F80" transform="translate(81,61)"/>
<path d="M0 0 C2.31 0.66 4.62 1.32 7 2 C7 2.66 7 3.32 7 4 C4.69 3.67 2.38 3.34 0 3 C0 2.01 0 1.02 0 0 Z " fill="#BBBE3B" transform="translate(56,170)"/>
<path d="M0 0 C0 0.66 0 1.32 0 2 C-1.65 2 -3.3 2 -5 2 C-5 2.99 -5 3.98 -5 5 C-5.99 5 -6.98 5 -8 5 C-7.67 3.68 -7.34 2.36 -7 1 C-2.25 0 -2.25 0 0 0 Z " fill="#83883F" transform="translate(38,156)"/>
<path d="M0 0 C0 0.66 0 1.32 0 2 C-2.31 2.33 -4.62 2.66 -7 3 C-7.33 2.01 -7.66 1.02 -8 0 C-2.25 -1.125 -2.25 -1.125 0 0 Z " fill="#B0AE3F" transform="translate(130,153)"/>
<path d="M0 0 C0.66 0 1.32 0 2 0 C0.125 5.75 0.125 5.75 -1 8 C-1.66 8 -2.32 8 -3 8 C-1.125 1.125 -1.125 1.125 0 0 Z " fill="#25C57B" transform="translate(91,109)"/>
<path d="M0 0 C-0.33 1.65 -0.66 3.3 -1 5 C-2.98 5.66 -4.96 6.32 -7 7 C-3.86206897 0 -3.86206897 0 0 0 Z " fill="#14AD68" transform="translate(102,101)"/>
<path d="M0 0 C2.31 0.33 4.62 0.66 7 1 C6.071875 1.4021875 6.071875 1.4021875 5.125 1.8125 C2.7004767 2.95556848 2.7004767 2.95556848 1 6 C0.67 4.02 0.34 2.04 0 0 Z " fill="#F0488E" transform="translate(88,68)"/>
<path d="M0 0 C1.65 0 3.3 0 5 0 C3.68 0.33 2.36 0.66 1 1 C1 2.32 1 3.64 1 5 C1.66 5 2.32 5 3 5 C2.34 6.32 1.68 7.64 1 9 C-0.4783226 6.04335481 -0.06032783 3.25770263 0 0 Z " fill="#E9ED3B" transform="translate(82,158)"/>
<path d="M0 0 C0.598125 0.350625 1.19625 0.70125 1.8125 1.0625 C-0.8275 1.7225 -3.4675 2.3825 -6.1875 3.0625 C-5.8575 2.0725 -5.5275 1.0825 -5.1875 0.0625 C-2.1875 -0.9375 -2.1875 -0.9375 0 0 Z " fill="#B7BB49" transform="translate(153.1875,143.9375)"/>
<path d="M0 0 C0.33 0.66 0.66 1.32 1 2 C1.66 2 2.32 2 3 2 C3.33 4.31 3.66 6.62 4 9 C1.27573689 6.64722731 0.1858237 4.37503669 -1 1 C-0.67 0.67 -0.34 0.34 0 0 Z " fill="#16AB67" transform="translate(44,90)"/>
<path d="M0 0 C1.32 0.99 2.64 1.98 4 3 C3.67 3.66 3.34 4.32 3 5 C1.68 4.34 0.36 3.68 -1 3 C-1.33 4.32 -1.66 5.64 -2 7 C-2.33 6.34 -2.66 5.68 -3 5 C-1.5625 2.375 -1.5625 2.375 0 0 Z " fill="#EA548F" transform="translate(119,24)"/>
</svg>
